<svg version="1.1" viewBox="0.0 0.0 520.0 520.0" fill="none" stroke="none" stroke-linecap="square" stroke-miterlimit="10" xmlns:xlink="http://www.w3.org/1999/xlink" xmlns="http://www.w3.org/2000/svg"><clipPath id="p.0"><path d="m0 0l800.0 0l0 600.0l-800.0 0l0 -600.0z" clip-rule="nonzero"/></clipPath><g clip-path="url(#p.0)"><path fill="#000000" fill-opacity="0.0" d="m0 0l800.0 0l0 600.0l-800.0 0z" fill-rule="evenodd"/><path fill="#f4cccc" d="m140.44313 261.57788l0 -99.36702l0 0c0 -5.270874 2.0938568 -10.325882 5.820923 -14.052963c3.7270813 -3.727066 8.782074 -5.820923 14.052963 -5.820923l99.367035 0l0 119.240906z" fill-rule="evenodd"/><path stroke="#000000" stroke-width="4.0" stroke-linejoin="round" stroke-linecap="butt" d="m140.44313 261.57788l0 -99.36702l0 0c0 -5.270874 2.0938568 -10.325882 5.820923 -14.052963c3.7270813 -3.727066 8.782074 -5.820923 14.052963 -5.820923l99.367035 0l0 119.240906z" fill-rule="evenodd"/><path fill="#000000" fill-opacity="0.0" d="m140.44313 173.02673l119.24092 0l0 64.62288l-119.24092 0z" fill-rule="evenodd"/><path fill="#000000" d="m180.57162 199.94673l0 -13.25l4.8125 0q2.171875 0 3.625 0.890625q1.453125 0.890625 2.171875 2.390625q0.734375 1.5 0.734375 3.328125q0 2.015625 -0.796875 3.515625q-0.796875 1.484375 -2.265625 2.3125q-1.46875 0.8125 -3.46875 0.8125l-4.8125 0zm8.75 -6.640625q0 -1.28125 -0.46875 -2.265625q-0.453125 -0.984375 -1.34375 -1.53125q-0.875 -0.546875 -2.125 -0.546875l-2.234375 0l0 8.734375l2.234375 0q1.28125 0 2.15625 -0.5625q0.875 -0.578125 1.328125 -1.578125q0.453125 -1.0 0.453125 -2.25zm3.5896301 3.75q0 -0.953125 0.53125 -1.671875q0.53125 -0.71875 1.484375 -1.109375q0.953125 -0.390625 2.1875 -0.390625q0.609375 0 1.234375 0.09375q0.640625 0.09375 1.109375 0.296875l0 -0.515625q0 -0.9375 -0.5625 -1.4375q-0.546875 -0.515625 -1.625 -0.515625q-0.796875 0 -1.53125 0.28125q-0.71875 0.28125 -1.53125 0.828125l-0.796875 -1.640625q0.96875 -0.640625 1.984375 -0.953125q1.015625 -0.3125 2.140625 -0.3125q2.09375 0 3.25 1.046875q1.171875 1.03125 1.171875 2.984375l0 3.109375q0 0.390625 0.140625 0.5625q0.140625 0.15625 0.453125 0.203125l0 2.03125q-0.328125 0.0625 -0.609375 0.09375q-0.265625 0.03125 -0.453125 0.03125q-0.75 0 -1.140625 -0.328125q-0.375 -0.34375 -0.46875 -0.828125l-0.046875 -0.5q-0.640625 0.828125 -1.59375 1.28125q-0.953125 0.4375 -1.9375 0.4375q-0.96875 0 -1.75 -0.390625q-0.765625 -0.40625 -1.203125 -1.109375q-0.4375 -0.703125 -0.4375 -1.578125zm6.078125 0.5q0.203125 -0.21875 0.328125 -0.4375q0.140625 -0.234375 0.140625 -0.421875l0 -0.984375q-0.453125 -0.1875 -0.984375 -0.28125q-0.515625 -0.109375 -0.96875 -0.109375q-0.984375 0 -1.609375 0.421875q-0.625 0.421875 -0.625 1.109375q0 0.375 0.203125 0.71875q0.21875 0.328125 0.609375 0.53125q0.390625 0.203125 0.9375 0.203125q0.546875 0 1.09375 -0.21875q0.546875 -0.21875 0.875 -0.53125zm11.068481 1.890625q-0.328125 0.125 -0.78125 0.296875q-0.4375 0.171875 -0.953125 0.265625q-0.515625 0.109375 -1.03125 0.109375q-0.6875 0 -1.265625 -0.234375q-0.578125 -0.25 -0.921875 -0.78125q-0.34375 -0.53125 -0.34375 -1.390625l0 -5.625l-1.296875 0l0 -1.921875l1.296875 0l0 -3.171875l2.5 0l0 3.171875l2.046875 0l0 1.921875l-2.046875 0l0 4.78125q0.015625 0.5 0.265625 0.734375q0.265625 0.21875 0.65625 0.21875q0.390625 0 0.765625 -0.125q0.375 -0.140625 0.609375 -0.234375l0.5 1.984375zm0.63275146 -2.390625q0 -0.953125 0.53125 -1.671875q0.53125 -0.71875 1.484375 -1.109375q0.953125 -0.390625 2.1875 -0.390625q0.609375 0 1.234375 0.09375q0.640625 0.09375 1.109375 0.296875l0 -0.515625q0 -0.9375 -0.5625 -1.4375q-0.546875 -0.515625 -1.625 -0.515625q-0.796875 0 -1.53125 0.28125q-0.71875 0.28125 -1.53125 0.828125l-0.796875 -1.640625q0.96875 -0.640625 1.984375 -0.953125q1.015625 -0.3125 2.140625 -0.3125q2.09375 0 3.25 1.046875q1.171875 1.03125 1.171875 2.984375l0 3.109375q0 0.390625 0.140625 0.5625q0.140625 0.15625 0.453125 0.203125l0 2.03125q-0.328125 0.0625 -0.609375 0.09375q-0.265625 0.03125 -0.453125 0.03125q-0.75 0 -1.140625 -0.328125q-0.375 -0.34375 -0.46875 -0.828125l-0.046875 -0.5q-0.640625 0.828125 -1.59375 1.28125q-0.953125 0.4375 -1.9375 0.4375q-0.96875 0 -1.75 -0.390625q-0.765625 -0.40625 -1.203125 -1.109375q-0.4375 -0.703125 -0.4375 -1.578125zm6.078125 0.5q0.203125 -0.21875 0.328125 -0.4375q0.140625 -0.234375 0.140625 -0.421875l0 -0.984375q-0.453125 -0.1875 -0.984375 -0.28125q-0.515625 -0.109375 -0.96875 -0.109375q-0.984375 0 -1.609375 0.421875q-0.625 0.421875 -0.625 1.109375q0 0.375 0.203125 0.71875q0.21875 0.328125 0.609375 0.53125q0.390625 0.203125 0.9375 0.203125q0.546875 0 1.09375 -0.21875q0.546875 -0.21875 0.875 -0.53125z" fill-rule="nonzero"/><path fill="#000000" d="m184.0522 222.34674l0 -8.6875l-3.40625 6.46875l-1.4375 0l-3.390625 -6.46875l0 8.6875l-2.578125 0l0 -13.25l2.765625 0l3.921875 7.546875l3.953125 -7.546875l2.734375 0l0 13.25l-2.5625 0zm9.438416 0.1875q-1.203125 0 -2.15625 -0.390625q-0.9375 -0.40625 -1.609375 -1.109375q-0.65625 -0.71875 -1.015625 -1.625q-0.359375 -0.921875 -0.359375 -1.9375q0 -1.015625 0.359375 -1.921875q0.359375 -0.921875 1.015625 -1.625q0.671875 -0.71875 1.609375 -1.109375q0.953125 -0.40625 2.15625 -0.40625q1.1875 0 2.125 0.40625q0.953125 0.390625 1.625 1.109375q0.671875 0.703125 1.015625 1.625q0.34375 0.90625 0.34375 1.921875q0 1.015625 -0.34375 1.9375q-0.34375 0.90625 -1.015625 1.625q-0.65625 0.703125 -1.609375 1.109375q-0.953125 0.390625 -2.140625 0.390625zm-2.5625 -5.0625q0 0.859375 0.328125 1.53125q0.34375 0.65625 0.921875 1.03125q0.578125 0.375 1.3125 0.375q0.703125 0 1.28125 -0.375q0.578125 -0.390625 0.921875 -1.046875q0.34375 -0.671875 0.34375 -1.53125q0 -0.84375 -0.34375 -1.515625q-0.34375 -0.671875 -0.921875 -1.03125q-0.578125 -0.375 -1.28125 -0.375q-0.734375 0 -1.3125 0.390625q-0.578125 0.375 -0.921875 1.03125q-0.328125 0.65625 -0.328125 1.515625zm8.75882 -0.015625q0 -1.421875 0.546875 -2.5625q0.5625 -1.140625 1.546875 -1.8125q1.0 -0.671875 2.265625 -0.671875q1.078125 0 1.9375 0.53125q0.875 0.53125 1.359375 1.34375l0 -5.5625l2.5 0l0 10.828125q0 0.390625 0.125 0.5625q0.140625 0.15625 0.453125 0.203125l0 2.03125q-0.640625 0.125 -1.0625 0.125q-0.671875 0 -1.109375 -0.328125q-0.4375 -0.34375 -0.484375 -0.875l-0.046875 -0.625q-0.53125 0.921875 -1.46875 1.40625q-0.921875 0.484375 -1.921875 0.484375q-1.015625 0 -1.859375 -0.390625q-0.84375 -0.390625 -1.46875 -1.078125q-0.625 -0.703125 -0.96875 -1.625q-0.34375 -0.921875 -0.34375 -1.984375zm7.65625 1.3125l0 -2.328125q-0.1875 -0.546875 -0.59375 -0.96875q-0.40625 -0.4375 -0.921875 -0.6875q-0.5 -0.25 -1.0 -0.25q-0.578125 0 -1.046875 0.25q-0.46875 0.234375 -0.8125 0.640625q-0.34375 0.40625 -0.515625 0.953125q-0.171875 0.546875 -0.171875 1.140625q0 0.59375 0.1875 1.125q0.203125 0.53125 0.5625 0.921875q0.375 0.390625 0.875 0.625q0.5 0.21875 1.078125 0.21875q0.34375 0 0.703125 -0.125q0.375 -0.125 0.703125 -0.328125q0.328125 -0.21875 0.578125 -0.53125q0.25 -0.3125 0.375 -0.65625zm9.502029 3.765625q-1.171875 0 -2.125 -0.390625q-0.953125 -0.40625 -1.625 -1.109375q-0.671875 -0.703125 -1.046875 -1.609375q-0.359375 -0.90625 -0.359375 -1.90625q0 -1.40625 0.625 -2.5625q0.625 -1.15625 1.796875 -1.84375q1.171875 -0.703125 2.75 -0.703125q1.609375 0 2.75 0.703125q1.140625 0.6875 1.734375 1.84375q0.609375 1.140625 0.609375 2.46875q0 0.21875 -0.015625 0.453125q-0.015625 0.234375 -0.03125 0.390625l-7.5625 0q0.078125 0.734375 0.4375 1.296875q0.359375 0.5625 0.921875 0.859375q0.578125 0.28125 1.234375 0.28125q0.75 0 1.40625 -0.359375q0.65625 -0.375 0.90625 -0.96875l2.140625 0.59375q-0.34375 0.75 -1.015625 1.328125q-0.65625 0.578125 -1.5625 0.90625q-0.890625 0.328125 -1.96875 0.328125zm-2.5625 -5.859375l5.125 0q-0.078125 -0.75 -0.421875 -1.296875q-0.34375 -0.546875 -0.90625 -0.859375q-0.5625 -0.3125 -1.25 -0.3125q-0.671875 0 -1.234375 0.3125q-0.546875 0.3125 -0.890625 0.859375q-0.34375 0.546875 -0.421875 1.296875zm9.19072 -7.953125l2.5 0l0 10.484375q0 0.671875 0.21875 0.90625q0.21875 0.234375 0.609375 0.234375q0.296875 0 0.609375 -0.0625q0.328125 -0.078125 0.578125 -0.1875l0.328125 1.890625q-0.5 0.25 -1.171875 0.375q-0.671875 0.140625 -1.21875 0.140625q-1.171875 0 -1.8125 -0.625q-0.640625 -0.625 -0.640625 -1.78125l0 -11.375z" fill-rule="nonzero"/><path fill="#d9ead3" d="m259.6993 142.32172l99.367035 0l0 0c5.270874 0 10.325867 2.0938416 14.052948 5.820923c3.7270813 3.7270813 5.820923 8.782074 5.820923 14.052963l0 99.36702l-119.240906 0z" fill-rule="evenodd"/><path stroke="#000000" stroke-width="4.0" stroke-linejoin="round" stroke-linecap="butt" d="m259.6993 142.32172l99.367035 0l0 0c5.270874 0 10.325867 2.0938416 14.052948 5.820923c3.7270813 3.7270813 5.820923 8.782074 5.820923 14.052963l0 99.36702l-119.240906 0z" fill-rule="evenodd"/><path fill="#000000" fill-opacity="0.0" d="m259.71457 173.04318l119.240906 0l0 64.62288l-119.240906 0z" fill-rule="evenodd"/><path fill="#000000" d="m300.5608 186.71318l2.609375 0l4.875 13.25l-2.65625 0l-1.234375 -3.296875l-4.625 0l-1.203125 3.296875l-2.65625 0l4.890625 -13.25zm3.125 8.140625l-1.828125 -5.46875l-1.890625 5.46875l3.71875 0zm11.380737 -2.5q-1.125 0 -2.03125 0.4375q-0.890625 0.4375 -1.28125 1.265625l0 5.90625l-2.5 0l0 -9.78125l2.296875 0l0 2.09375q0.515625 -1.0 1.3125 -1.578125q0.8125 -0.578125 1.703125 -0.640625q0.203125 0 0.3125 0q0.125 0 0.1875 0.015625l0 2.28125zm7.2199707 0q-1.125 0 -2.03125 0.4375q-0.890625 0.4375 -1.28125 1.265625l0 5.90625l-2.5 0l0 -9.78125l2.296875 0l0 2.09375q0.515625 -1.0 1.3125 -1.578125q0.8125 -0.578125 1.703125 -0.640625q0.203125 0 0.3125 0q0.125 0 0.1875 0.015625l0 2.28125zm0.67959595 4.71875q0 -0.953125 0.53125 -1.671875q0.53125 -0.71875 1.484375 -1.109375q0.953125 -0.390625 2.1875 -0.390625q0.609375 0 1.234375 0.09375q0.640625 0.09375 1.109375 0.296875l0 -0.515625q0 -0.9375 -0.5625 -1.4375q-0.546875 -0.515625 -1.625 -0.515625q-0.796875 0 -1.53125 0.28125q-0.71875 0.28125 -1.53125 0.828125l-0.796875 -1.640625q0.96875 -0.640625 1.984375 -0.953125q1.015625 -0.3125 2.140625 -0.3125q2.09375 0 3.25 1.046875q1.171875 1.03125 1.171875 2.984375l0 3.109375q0 0.390625 0.140625 0.5625q0.140625 0.15625 0.453125 0.203125l0 2.03125q-0.328125 0.0625 -0.609375 0.09375q-0.265625 0.03125 -0.453125 0.03125q-0.75 0 -1.140625 -0.328125q-0.375 -0.34375 -0.46875 -0.828125l-0.046875 -0.5q-0.640625 0.828125 -1.59375 1.28125q-0.953125 0.4375 -1.9375 0.4375q-0.96875 0 -1.75 -0.390625q-0.765625 -0.40625 -1.203125 -1.109375q-0.4375 -0.703125 -0.4375 -1.578125zm6.078125 0.5q0.203125 -0.21875 0.328125 -0.4375q0.140625 -0.234375 0.140625 -0.421875l0 -0.984375q-0.453125 -0.1875 -0.984375 -0.28125q-0.515625 -0.109375 -0.96875 -0.109375q-0.984375 0 -1.609375 0.421875q-0.625 0.421875 -0.625 1.109375q0 0.375 0.203125 0.71875q0.21875 0.328125 0.609375 0.53125q0.390625 0.203125 0.9375 0.203125q0.546875 0 1.09375 -0.21875q0.546875 -0.21875 0.875 -0.53125zm5.1322327 4.296875q0.328125 0.078125 0.609375 0.125q0.296875 0.0625 0.515625 0.0625q0.34375 0 0.578125 -0.1875q0.234375 -0.171875 0.453125 -0.625q0.234375 -0.453125 0.46875 -1.28125l-3.859375 -9.78125l2.59375 0l2.625 7.21875l2.328125 -7.21875l2.375 0l-4.09375 11.71875q-0.234375 0.65625 -0.6875 1.1875q-0.453125 0.53125 -1.140625 0.828125q-0.671875 0.3125 -1.515625 0.3125q-0.296875 0 -0.59375 -0.046875q-0.296875 -0.046875 -0.65625 -0.15625l0 -2.15625z" fill-rule="nonzero"/><path fill="#000000" d="m286.2977 212.58192q-0.125 -0.125 -0.46875 -0.34375q-0.34375 -0.234375 -0.84375 -0.4375q-0.484375 -0.203125 -1.0625 -0.359375q-0.578125 -0.15625 -1.1875 -0.15625q-1.03125 0 -1.578125 0.390625q-0.53125 0.390625 -0.53125 1.09375q0 0.546875 0.328125 0.875q0.34375 0.3125 1.015625 0.53125q0.671875 0.21875 1.6875 0.484375q1.296875 0.3125 2.25 0.78125q0.96875 0.453125 1.484375 1.1875q0.515625 0.734375 0.515625 1.953125q0 1.0625 -0.390625 1.8125q-0.390625 0.75 -1.078125 1.21875q-0.6875 0.46875 -1.578125 0.6875q-0.875 0.21875 -1.859375 0.21875q-0.984375 0 -1.984375 -0.203125q-0.984375 -0.21875 -1.90625 -0.59375q-0.90625 -0.390625 -1.671875 -0.921875l1.140625 -2.21875q0.171875 0.15625 0.59375 0.4375q0.4375 0.265625 1.046875 0.546875q0.625 0.265625 1.34375 0.453125q0.734375 0.171875 1.46875 0.171875q1.046875 0 1.59375 -0.34375q0.546875 -0.359375 0.546875 -1.015625q0 -0.59375 -0.4375 -0.921875q-0.421875 -0.34375 -1.1875 -0.59375q-0.765625 -0.25 -1.8125 -0.546875q-1.25 -0.359375 -2.09375 -0.796875q-0.84375 -0.4375 -1.25 -1.109375q-0.40625 -0.671875 -0.40625 -1.671875q0 -1.375 0.640625 -2.296875q0.640625 -0.921875 1.734375 -1.390625q1.109375 -0.484375 2.453125 -0.484375q0.9375 0 1.765625 0.21875q0.828125 0.203125 1.546875 0.546875q0.734375 0.328125 1.3125 0.71875l-1.140625 2.078125zm8.946655 9.28125q-0.328125 0.125 -0.78125 0.296875q-0.4375 0.171875 -0.953125 0.265625q-0.515625 0.109375 -1.03125 0.109375q-0.6875 0 -1.265625 -0.234375q-0.578125 -0.25 -0.921875 -0.78125q-0.34375 -0.53125 -0.34375 -1.390625l0 -5.625l-1.296875 0l0 -1.921875l1.296875 0l0 -3.171875l2.5 0l0 3.171875l2.046875 0l0 1.921875l-2.046875 0l0 4.78125q0.015625 0.5 0.265625 0.734375q0.265625 0.21875 0.65625 0.21875q0.390625 0 0.765625 -0.125q0.375 -0.140625 0.609375 -0.234375l0.5 1.984375zm7.1171265 -7.109375q-1.125 0 -2.03125 0.4375q-0.890625 0.4375 -1.28125 1.265625l0 5.90625l-2.5 0l0 -9.78125l2.296875 0l0 2.09375q0.515625 -1.0 1.3125 -1.578125q0.8125 -0.578125 1.703125 -0.640625q0.203125 0 0.3125 0q0.125 0 0.1875 0.015625l0 2.28125zm1.3137207 3.953125l0 -6.125l2.5 0l0 5.578125q0 1.125 0.40625 1.703125q0.40625 0.5625 1.21875 0.5625q0.484375 0 0.953125 -0.1875q0.484375 -0.203125 0.875 -0.59375q0.40625 -0.390625 0.6875 -1.0l0 -6.0625l2.5 0l0 6.984375q0 0.390625 0.140625 0.5625q0.140625 0.15625 0.453125 0.203125l0 2.03125q-0.375 0.0625 -0.625 0.078125q-0.25 0.03125 -0.453125 0.03125q-0.671875 0 -1.09375 -0.296875q-0.421875 -0.3125 -0.5 -0.859375l-0.046875 -0.78125q-0.65625 0.984375 -1.6875 1.5q-1.015625 0.515625 -2.25 0.515625q-1.515625 0 -2.296875 -0.96875q-0.78125 -0.984375 -0.78125 -2.875zm16.170197 3.84375q-1.1875 0 -2.140625 -0.390625q-0.953125 -0.40625 -1.625 -1.125q-0.671875 -0.71875 -1.046875 -1.625q-0.359375 -0.921875 -0.359375 -1.9375q0 -1.375 0.625 -2.515625q0.625 -1.15625 1.78125 -1.84375q1.15625 -0.6875 2.75 -0.6875q1.578125 0 2.71875 0.6875q1.140625 0.6875 1.703125 1.8125l-2.4375 0.734375q-0.328125 -0.53125 -0.859375 -0.8125q-0.515625 -0.296875 -1.140625 -0.296875q-0.71875 0 -1.3125 0.359375q-0.578125 0.359375 -0.921875 1.03125q-0.328125 0.65625 -0.328125 1.53125q0 0.859375 0.34375 1.53125q0.34375 0.65625 0.921875 1.046875q0.578125 0.375 1.296875 0.375q0.4375 0 0.84375 -0.140625q0.40625 -0.15625 0.71875 -0.421875q0.3125 -0.265625 0.46875 -0.59375l2.4375 0.75q-0.328125 0.71875 -0.984375 1.296875q-0.640625 0.578125 -1.515625 0.90625q-0.859375 0.328125 -1.9375 0.328125zm11.834625 -0.6875q-0.328125 0.125 -0.78125 0.296875q-0.4375 0.171875 -0.953125 0.265625q-0.515625 0.109375 -1.03125 0.109375q-0.6875 0 -1.265625 -0.234375q-0.578125 -0.25 -0.921875 -0.78125q-0.34375 -0.53125 -0.34375 -1.390625l0 -5.625l-1.296875 0l0 -1.921875l1.296875 0l0 -3.171875l2.5 0l0 3.171875l2.046875 0l0 1.921875l-2.046875 0l0 4.78125q0.015625 0.5 0.265625 0.734375q0.265625 0.21875 0.65625 0.21875q0.390625 0 0.765625 -0.125q0.375 -0.140625 0.609375 -0.234375l0.5 1.984375zm1.2108765 -3.15625l0 -6.125l2.5 0l0 5.578125q0 1.125 0.40625 1.703125q0.40625 0.5625 1.21875 0.5625q0.484375 0 0.953125 -0.1875q0.484375 -0.203125 0.875 -0.59375q0.40625 -0.390625 0.6875 -1.0l0 -6.0625l2.5 0l0 6.984375q0 0.390625 0.140625 0.5625q0.140625 0.15625 0.453125 0.203125l0 2.03125q-0.375 0.0625 -0.625 0.078125q-0.25 0.03125 -0.453125 0.03125q-0.671875 0 -1.09375 -0.296875q-0.421875 -0.3125 -0.5 -0.859375l-0.046875 -0.78125q-0.65625 0.984375 -1.6875 1.5q-1.015625 0.515625 -2.25 0.515625q-1.515625 0 -2.296875 -0.96875q-0.78125 -0.984375 -0.78125 -2.875zm17.435822 -3.953125q-1.125 0 -2.03125 0.4375q-0.890625 0.4375 -1.28125 1.265625l0 5.90625l-2.5 0l0 -9.78125l2.296875 0l0 2.09375q0.515625 -1.0 1.3125 -1.578125q0.8125 -0.578125 1.703125 -0.640625q0.203125 0 0.3125 0q0.125 0 0.1875 0.015625l0 2.28125zm5.8080444 7.796875q-1.171875 0 -2.125 -0.390625q-0.953125 -0.40625 -1.625 -1.109375q-0.671875 -0.703125 -1.046875 -1.609375q-0.359375 -0.90625 -0.359375 -1.90625q0 -1.40625 0.625 -2.5625q0.625 -1.15625 1.796875 -1.84375q1.171875 -0.703125 2.75 -0.703125q1.609375 0 2.75 0.703125q1.140625 0.6875 1.734375 1.84375q0.609375 1.140625 0.609375 2.46875q0 0.21875 -0.015625 0.453125q-0.015625 0.234375 -0.03125 0.390625l-7.5625 0q0.078125 0.734375 0.4375 1.296875q0.359375 0.5625 0.921875 0.859375q0.578125 0.28125 1.234375 0.28125q0.75 0 1.40625 -0.359375q0.65625 -0.375 0.90625 -0.96875l2.140625 0.59375q-0.34375 0.75 -1.015625 1.328125q-0.65625 0.578125 -1.5625 0.90625q-0.890625 0.328125 -1.96875 0.328125zm-2.5625 -5.859375l5.125 0q-0.078125 -0.75 -0.421875 -1.296875q-0.34375 -0.546875 -0.90625 -0.859375q-0.5625 -0.3125 -1.25 -0.3125q-0.671875 0 -1.234375 0.3125q-0.546875 0.3125 -0.890625 0.859375q-0.34375 0.546875 -0.421875 1.296875z" fill-rule="nonzero"/><path fill="#d9d2e9" d="m259.6993 380.83405l-99.367035 0l0 0c-5.270874 0 -10.325882 -2.0938416 -14.052948 -5.820923c-3.7270813 -3.7270508 -5.820923 -8.782074 -5.820923 -14.052948l0 -99.367035l119.240906 0z" fill-rule="evenodd"/><path stroke="#000000" stroke-width="4.0" stroke-linejoin="round" stroke-linecap="butt" d="m259.6993 380.83405l-99.367035 0l0 0c-5.270874 0 -10.325882 -2.0938416 -14.052948 -5.820923c-3.7270813 -3.7270508 -5.820923 -8.782074 -5.820923 -14.052948l0 -99.367035l119.240906 0z" fill-rule="evenodd"/><path fill="#000000" fill-opacity="0.0" d="m140.45958 292.2841l119.24089 0l0 64.62286l-119.24089 0z" fill-rule="evenodd"/><path fill="#000000" d="m152.50108 319.20407l0 -13.25l5.625 0q0.90625 0 1.671875 0.375q0.765625 0.375 1.328125 1.015625q0.578125 0.625 0.890625 1.421875q0.328125 0.78125 0.328125 1.59375q0 1.125 -0.53125 2.140625q-0.515625 1.0 -1.4375 1.640625q-0.90625 0.625 -2.15625 0.625l-3.140625 0l0 4.4375l-2.578125 0zm2.578125 -6.703125l2.984375 0q0.46875 0 0.84375 -0.25q0.375 -0.265625 0.59375 -0.75q0.21875 -0.5 0.21875 -1.140625q0 -0.6875 -0.25 -1.171875q-0.25 -0.484375 -0.65625 -0.71875q-0.390625 -0.25 -0.859375 -0.25l-2.875 0l0 4.28125zm14.6228485 -0.90625q-1.125 0 -2.03125 0.4375q-0.890625 0.4375 -1.28125 1.265625l0 5.90625l-2.5 0l0 -9.78125l2.296875 0l0 2.09375q0.515625 -1.0 1.3125 -1.578125q0.8125 -0.578125 1.703125 -0.640625q0.203125 0 0.3125 0q0.125 0 0.1875 0.015625l0 2.28125zm5.7924347 7.796875q-1.203125 0 -2.15625 -0.390625q-0.9375 -0.40625 -1.609375 -1.109375q-0.65625 -0.71875 -1.015625 -1.625q-0.359375 -0.921875 -0.359375 -1.9375q0 -1.015625 0.359375 -1.921875q0.359375 -0.921875 1.015625 -1.625q0.671875 -0.71875 1.609375 -1.109375q0.953125 -0.40625 2.15625 -0.40625q1.1875 0 2.125 0.40625q0.953125 0.390625 1.625 1.109375q0.671875 0.703125 1.015625 1.625q0.34375 0.90625 0.34375 1.921875q0 1.015625 -0.34375 1.9375q-0.34375 0.90625 -1.015625 1.625q-0.65625 0.703125 -1.609375 1.109375q-0.953125 0.390625 -2.140625 0.390625zm-2.5625 -5.0625q0 0.859375 0.328125 1.53125q0.34375 0.65625 0.921875 1.03125q0.578125 0.375 1.3125 0.375q0.703125 0 1.28125 -0.375q0.578125 -0.390625 0.921875 -1.046875q0.34375 -0.671875 0.34375 -1.53125q0 -0.84375 -0.34375 -1.515625q-0.34375 -0.671875 -0.921875 -1.03125q-0.578125 -0.375 -1.28125 -0.375q-0.734375 0 -1.3125 0.390625q-0.578125 0.375 -0.921875 1.03125q-0.328125 0.65625 -0.328125 1.515625zm13.899445 5.0625q-1.1875 0 -2.140625 -0.390625q-0.953125 -0.40625 -1.625 -1.125q-0.671875 -0.71875 -1.046875 -1.625q-0.359375 -0.921875 -0.359375 -1.9375q0 -1.375 0.625 -2.515625q0.625 -1.15625 1.78125 -1.84375q1.15625 -0.6875 2.75 -0.6875q1.578125 0 2.71875 0.6875q1.140625 0.6875 1.703125 1.8125l-2.4375 0.734375q-0.328125 -0.53125 -0.859375 -0.8125q-0.515625 -0.296875 -1.140625 -0.296875q-0.71875 0 -1.3125 0.359375q-0.578125 0.359375 -0.921875 1.03125q-0.328125 0.65625 -0.328125 1.53125q0 0.859375 0.34375 1.53125q0.34375 0.65625 0.921875 1.046875q0.578125 0.375 1.296875 0.375q0.4375 0 0.84375 -0.140625q0.40625 -0.15625 0.71875 -0.421875q0.3125 -0.265625 0.46875 -0.59375l2.4375 0.75q-0.328125 0.71875 -0.984375 1.296875q-0.640625 0.578125 -1.515625 0.90625q-0.859375 0.328125 -1.9375 0.328125zm10.413162 0q-1.171875 0 -2.125 -0.390625q-0.953125 -0.40625 -1.625 -1.109375q-0.671875 -0.703125 -1.046875 -1.609375q-0.359375 -0.90625 -0.359375 -1.90625q0 -1.40625 0.625 -2.5625q0.625 -1.15625 1.796875 -1.84375q1.171875 -0.703125 2.75 -0.703125q1.609375 0 2.75 0.703125q1.140625 0.6875 1.734375 1.84375q0.609375 1.140625 0.609375 2.46875q0 0.21875 -0.015625 0.453125q-0.015625 0.234375 -0.03125 0.390625l-7.5625 0q0.078125 0.734375 0.4375 1.296875q0.359375 0.5625 0.921875 0.859375q0.578125 0.28125 1.234375 0.28125q0.75 0 1.40625 -0.359375q0.65625 -0.375 0.90625 -0.96875l2.140625 0.59375q-0.34375 0.75 -1.015625 1.328125q-0.65625 0.578125 -1.5625 0.90625q-0.890625 0.328125 -1.96875 0.328125zm-2.5625 -5.859375l5.125 0q-0.078125 -0.75 -0.421875 -1.296875q-0.34375 -0.546875 -0.90625 -0.859375q-0.5625 -0.3125 -1.25 -0.3125q-0.671875 0 -1.234375 0.3125q-0.546875 0.3125 -0.890625 0.859375q-0.34375 0.546875 -0.421875 1.296875zm12.800095 5.859375q-1.25 0 -2.390625 -0.40625q-1.125 -0.421875 -1.953125 -1.21875l0.890625 -1.625q0.890625 0.71875 1.734375 1.0625q0.84375 0.328125 1.625 0.328125q0.734375 0 1.171875 -0.265625q0.4375 -0.265625 0.4375 -0.78125q0 -0.359375 -0.25 -0.546875q-0.234375 -0.203125 -0.703125 -0.34375q-0.453125 -0.15625 -1.09375 -0.34375q-1.09375 -0.359375 -1.828125 -0.6875q-0.71875 -0.34375 -1.078125 -0.84375q-0.359375 -0.515625 -0.359375 -1.328125q0 -0.96875 0.484375 -1.65625q0.5 -0.703125 1.375 -1.09375q0.890625 -0.40625 2.09375 -0.40625q1.046875 0 1.96875 0.328125q0.9375 0.328125 1.703125 1.0625l-1.0 1.578125q-0.75 -0.578125 -1.421875 -0.84375q-0.671875 -0.265625 -1.359375 -0.265625q-0.390625 0 -0.75 0.09375q-0.34375 0.09375 -0.5625 0.3125q-0.203125 0.203125 -0.203125 0.59375q0 0.359375 0.1875 0.5625q0.203125 0.1875 0.59375 0.34375q0.40625 0.140625 0.984375 0.328125q1.1875 0.328125 1.984375 0.6875q0.8125 0.359375 1.21875 0.875q0.421875 0.5 0.421875 1.40625q0 1.453125 -1.0625 2.28125q-1.0625 0.8125 -2.859375 0.8125zm9.216187 0q-1.25 0 -2.390625 -0.40625q-1.125 -0.421875 -1.953125 -1.21875l0.890625 -1.625q0.890625 0.71875 1.734375 1.0625q0.84375 0.328125 1.625 0.328125q0.734375 0 1.171875 -0.265625q0.4375 -0.265625 0.4375 -0.78125q0 -0.359375 -0.25 -0.546875q-0.234375 -0.203125 -0.703125 -0.34375q-0.453125 -0.15625 -1.09375 -0.34375q-1.09375 -0.359375 -1.828125 -0.6875q-0.71875 -0.34375 -1.078125 -0.84375q-0.359375 -0.515625 -0.359375 -1.328125q0 -0.96875 0.484375 -1.65625q0.5 -0.703125 1.375 -1.09375q0.890625 -0.40625 2.09375 -0.40625q1.046875 0 1.96875 0.328125q0.9375 0.328125 1.703125 1.0625l-1.0 1.578125q-0.75 -0.578125 -1.421875 -0.84375q-0.671875 -0.265625 -1.359375 -0.265625q-0.390625 0 -0.75 0.09375q-0.34375 0.09375 -0.5625 0.3125q-0.203125 0.203125 -0.203125 0.59375q0 0.359375 0.1875 0.5625q0.203125 0.1875 0.59375 0.34375q0.40625 0.140625 0.984375 0.328125q1.1875 0.328125 1.984375 0.6875q0.8125 0.359375 1.21875 0.875q0.421875 0.5 0.421875 1.40625q0 1.453125 -1.0625 2.28125q-1.0625 0.8125 -2.859375 0.8125zm5.6224365 -0.1875l0 -9.78125l2.5 0l0 9.78125l-2.5 0zm0 -11.140625l0 -2.484375l2.5 0l0 2.484375l-2.5 0zm13.8354645 11.140625l-2.5 0l0 -5.484375q0 -1.171875 -0.40625 -1.71875q-0.40625 -0.546875 -1.140625 -0.546875q-0.5 0 -1.015625 0.265625q-0.515625 0.265625 -0.921875 0.71875q-0.40625 0.453125 -0.59375 1.0625l0 5.703125l-2.5 0l0 -9.78125l2.25 0l0 1.8125q0.375 -0.625 0.953125 -1.0625q0.578125 -0.453125 1.328125 -0.671875q0.765625 -0.234375 1.609375 -0.234375q0.90625 0 1.484375 0.328125q0.59375 0.3125 0.90625 0.875q0.3125 0.546875 0.421875 1.234375q0.125 0.6875 0.125 1.40625l0 6.09375zm6.0183716 0.0625q-0.96875 0 -1.78125 -0.375q-0.8125 -0.390625 -1.40625 -1.078125q-0.59375 -0.703125 -0.90625 -1.59375q-0.3125 -0.890625 -0.3125 -1.90625q0 -1.0625 0.328125 -1.96875q0.34375 -0.921875 0.9375 -1.609375q0.609375 -0.703125 1.4375 -1.078125q0.84375 -0.390625 1.84375 -0.390625q1.140625 0 2.0 0.515625q0.859375 0.5 1.421875 1.359375l0 -1.71875l2.171875 0l0 9.3125q0 1.453125 -0.703125 2.484375q-0.6875 1.046875 -1.921875 1.59375q-1.234375 0.546875 -2.796875 0.546875q-1.59375 0 -2.6875 -0.53125q-1.09375 -0.53125 -1.890625 -1.5l1.375 -1.328125q0.546875 0.703125 1.390625 1.09375q0.859375 0.390625 1.8125 0.390625q0.796875 0 1.453125 -0.296875q0.671875 -0.28125 1.0625 -0.890625q0.40625 -0.609375 0.40625 -1.5625l0 -1.234375q-0.484375 0.84375 -1.375 1.3125q-0.875 0.453125 -1.859375 0.453125zm0.828125 -2.0q0.421875 0 0.78125 -0.125q0.375 -0.140625 0.6875 -0.359375q0.328125 -0.234375 0.5625 -0.53125q0.25 -0.3125 0.375 -0.625l0 -2.328125q-0.21875 -0.59375 -0.625 -1.015625q-0.390625 -0.421875 -0.890625 -0.65625q-0.5 -0.234375 -1.03125 -0.234375q-0.578125 0 -1.046875 0.25q-0.46875 0.234375 -0.8125 0.671875q-0.328125 0.4375 -0.515625 0.96875q-0.171875 0.53125 -0.171875 1.109375q0 0.59375 0.203125 1.125q0.21875 0.515625 0.578125 0.90625q0.359375 0.390625 0.859375 0.625q0.5 0.21875 1.046875 0.21875z" fill-rule="nonzero"/><path fill="#000000" d="m187.02567 341.6041l0 -8.6875l-3.40625 6.46875l-1.4375 0l-3.390625 -6.46875l0 8.6875l-2.578125 0l0 -13.25l2.765625 0l3.921875 7.546875l3.953125 -7.546875l2.734375 0l0 13.25l-2.5625 0zm9.438416 0.1875q-1.203125 0 -2.15625 -0.390625q-0.9375 -0.40625 -1.609375 -1.109375q-0.65625 -0.71875 -1.015625 -1.625q-0.359375 -0.921875 -0.359375 -1.9375q0 -1.015625 0.359375 -1.921875q0.359375 -0.921875 1.015625 -1.625q0.671875 -0.71875 1.609375 -1.109375q0.953125 -0.40625 2.15625 -0.40625q1.1875 0 2.125 0.40625q0.953125 0.390625 1.625 1.109375q0.671875 0.703125 1.015625 1.625q0.34375 0.90625 0.34375 1.921875q0 1.015625 -0.34375 1.9375q-0.34375 0.90625 -1.015625 1.625q-0.65625 0.703125 -1.609375 1.109375q-0.953125 0.390625 -2.140625 0.390625zm-2.5625 -5.0625q0 0.859375 0.328125 1.53125q0.34375 0.65625 0.921875 1.03125q0.578125 0.375 1.3125 0.375q0.703125 0 1.28125 -0.375q0.578125 -0.390625 0.921875 -1.046875q0.34375 -0.671875 0.34375 -1.53125q0 -0.84375 -0.34375 -1.515625q-0.34375 -0.671875 -0.921875 -1.03125q-0.578125 -0.375 -1.28125 -0.375q-0.734375 0 -1.3125 0.390625q-0.578125 0.375 -0.921875 1.03125q-0.328125 0.65625 -0.328125 1.515625zm8.75882 -0.015625q0 -1.421875 0.546875 -2.5625q0.5625 -1.140625 1.546875 -1.8125q1.0 -0.671875 2.265625 -0.671875q1.078125 0 1.9375 0.53125q0.875 0.53125 1.359375 1.34375l0 -5.5625l2.5 0l0 10.828125q0 0.390625 0.125 0.5625q0.140625 0.15625 0.453125 0.203125l0 2.03125q-0.640625 0.125 -1.0625 0.125q-0.671875 0 -1.109375 -0.328125q-0.4375 -0.34375 -0.484375 -0.875l-0.046875 -0.625q-0.53125 0.921875 -1.46875 1.40625q-0.921875 0.484375 -1.921875 0.484375q-1.015625 0 -1.859375 -0.390625q-0.84375 -0.390625 -1.46875 -1.078125q-0.625 -0.703125 -0.96875 -1.625q-0.34375 -0.921875 -0.34375 -1.984375zm7.65625 1.3125l0 -2.328125q-0.1875 -0.546875 -0.59375 -0.96875q-0.40625 -0.4375 -0.921875 -0.6875q-0.5 -0.25 -1.0 -0.25q-0.578125 0 -1.046875 0.25q-0.46875 0.234375 -0.8125 0.640625q-0.34375 0.40625 -0.515625 0.953125q-0.171875 0.546875 -0.171875 1.140625q0 0.59375 0.1875 1.125q0.203125 0.53125 0.5625 0.921875q0.375 0.390625 0.875 0.625q0.5 0.21875 1.078125 0.21875q0.34375 0 0.703125 -0.125q0.375 -0.125 0.703125 -0.328125q0.328125 -0.21875 0.578125 -0.53125q0.25 -0.3125 0.375 -0.65625zm9.502029 3.765625q-1.171875 0 -2.125 -0.390625q-0.953125 -0.40625 -1.625 -1.109375q-0.671875 -0.703125 -1.046875 -1.609375q-0.359375 -0.90625 -0.359375 -1.90625q0 -1.40625 0.625 -2.5625q0.625 -1.15625 1.796875 -1.84375q1.171875 -0.703125 2.75 -0.703125q1.609375 0 2.75 0.703125q1.140625 0.6875 1.734375 1.84375q0.609375 1.140625 0.609375 2.46875q0 0.21875 -0.015625 0.453125q-0.015625 0.234375 -0.03125 0.390625l-7.5625 0q0.078125 0.734375 0.4375 1.296875q0.359375 0.5625 0.921875 0.859375q0.578125 0.28125 1.234375 0.28125q0.75 0 1.40625 -0.359375q0.65625 -0.375 0.90625 -0.96875l2.140625 0.59375q-0.34375 0.75 -1.015625 1.328125q-0.65625 0.578125 -1.5625 0.90625q-0.890625 0.328125 -1.96875 0.328125zm-2.5625 -5.859375l5.125 0q-0.078125 -0.75 -0.421875 -1.296875q-0.34375 -0.546875 -0.90625 -0.859375q-0.5625 -0.3125 -1.25 -0.3125q-0.671875 0 -1.234375 0.3125q-0.546875 0.3125 -0.890625 0.859375q-0.34375 0.546875 -0.421875 1.296875z" fill-rule="nonzero"/><path fill="#cfe2f3" d="m378.95547 261.57788l0 99.367035l0 0c0 5.270874 -2.0938416 10.325867 -5.820923 14.052948c-3.7270813 3.7270813 -8.782074 5.820923 -14.052948 5.820923l-99.367035 0l0 -119.240906z" fill-rule="evenodd"/><path stroke="#000000" stroke-width="4.0" stroke-linejoin="round" stroke-linecap="butt" d="m378.95547 261.57788l0 99.367035l0 0c0 5.270874 -2.0938416 10.325867 -5.820923 14.052948c-3.7270813 3.7270813 -8.782074 5.820923 -14.052948 5.820923l-99.367035 0l0 -119.240906z" fill-rule="evenodd"/><path fill="#000000" fill-opacity="0.0" d="m259.71457 292.2841l119.240906 0l0 64.62286l-119.240906 0z" fill-rule="evenodd"/><path fill="#000000" d="m278.43103 312.48532q0 -1.203125 0.4375 -2.375q0.4375 -1.171875 1.28125 -2.125q0.84375 -0.96875 2.046875 -1.53125q1.21875 -0.578125 2.765625 -0.578125q1.828125 0 3.15625 0.8125q1.34375 0.796875 1.984375 2.09375l-1.96875 1.359375q-0.34375 -0.75 -0.890625 -1.1875q-0.53125 -0.4375 -1.15625 -0.609375q-0.609375 -0.1875 -1.203125 -0.1875q-0.96875 0 -1.6875 0.390625q-0.71875 0.390625 -1.203125 1.03125q-0.484375 0.625 -0.71875 1.421875q-0.234375 0.78125 -0.234375 1.5625q0 0.875 0.28125 1.6875q0.28125 0.8125 0.796875 1.4375q0.515625 0.625 1.234375 0.984375q0.71875 0.359375 1.578125 0.359375q0.609375 0 1.234375 -0.203125q0.640625 -0.203125 1.171875 -0.640625q0.546875 -0.453125 0.84375 -1.15625l2.109375 1.203125q-0.390625 0.984375 -1.28125 1.6875q-0.875 0.6875 -1.984375 1.046875q-1.09375 0.34375 -2.171875 0.34375q-1.421875 0 -2.59375 -0.578125q-1.171875 -0.59375 -2.03125 -1.5625q-0.84375 -0.984375 -1.328125 -2.203125q-0.46875 -1.234375 -0.46875 -2.484375zm17.838959 6.90625q-1.203125 0 -2.15625 -0.390625q-0.9375 -0.40625 -1.609375 -1.109375q-0.65625 -0.71875 -1.015625 -1.625q-0.359375 -0.921875 -0.359375 -1.9375q0 -1.015625 0.359375 -1.921875q0.359375 -0.921875 1.015625 -1.625q0.671875 -0.71875 1.609375 -1.109375q0.953125 -0.40625 2.15625 -0.40625q1.1875 0 2.125 0.40625q0.953125 0.390625 1.625 1.109375q0.671875 0.703125 1.015625 1.625q0.34375 0.90625 0.34375 1.921875q0 1.015625 -0.34375 1.9375q-0.34375 0.90625 -1.015625 1.625q-0.65625 0.703125 -1.609375 1.109375q-0.953125 0.390625 -2.140625 0.390625zm-2.5625 -5.0625q0 0.859375 0.328125 1.53125q0.34375 0.65625 0.921875 1.03125q0.578125 0.375 1.3125 0.375q0.703125 0 1.28125 -0.375q0.578125 -0.390625 0.921875 -1.046875q0.34375 -0.671875 0.34375 -1.53125q0 -0.84375 -0.34375 -1.515625q-0.34375 -0.671875 -0.921875 -1.03125q-0.578125 -0.375 -1.28125 -0.375q-0.734375 0 -1.3125 0.390625q-0.578125 0.375 -0.921875 1.03125q-0.328125 0.65625 -0.328125 1.515625zm24.54007 4.875l-2.5 0l0 -5.484375q0 -1.15625 -0.40625 -1.703125q-0.40625 -0.5625 -1.109375 -0.5625q-0.734375 0 -1.390625 0.578125q-0.65625 0.5625 -0.9375 1.484375l0 5.6875l-2.5 0l0 -5.484375q0 -1.171875 -0.40625 -1.71875q-0.40625 -0.546875 -1.109375 -0.546875q-0.71875 0 -1.390625 0.5625q-0.65625 0.5625 -0.9375 1.484375l0 5.703125l-2.5 0l0 -9.78125l2.25 0l0 1.8125q0.5625 -0.953125 1.5 -1.453125q0.9375 -0.515625 2.140625 -0.515625q1.21875 0 1.890625 0.59375q0.6875 0.59375 0.875 1.46875q0.59375 -1.0 1.515625 -1.53125q0.921875 -0.53125 2.078125 -0.53125q0.921875 0 1.484375 0.328125q0.578125 0.3125 0.890625 0.875q0.3125 0.546875 0.4375 1.234375q0.125 0.6875 0.125 1.40625l0 6.09375zm8.040863 0.1875q-1.140625 0 -2.015625 -0.515625q-0.859375 -0.515625 -1.34375 -1.390625l0 5.6875l-2.5 0l0 -13.75l2.1875 0l0 1.6875q0.546875 -0.859375 1.40625 -1.34375q0.859375 -0.5 1.96875 -0.5q0.984375 0 1.8125 0.390625q0.828125 0.390625 1.4375 1.09375q0.625 0.6875 0.96875 1.59375q0.34375 0.90625 0.34375 1.953125q0 1.421875 -0.546875 2.578125q-0.546875 1.15625 -1.515625 1.84375q-0.953125 0.671875 -2.203125 0.671875zm-0.84375 -2.125q0.578125 0 1.046875 -0.234375q0.46875 -0.25 0.8125 -0.671875q0.34375 -0.421875 0.515625 -0.953125q0.1875 -0.53125 0.1875 -1.109375q0 -0.609375 -0.203125 -1.125q-0.1875 -0.53125 -0.5625 -0.9375q-0.375 -0.40625 -0.875 -0.625q-0.5 -0.21875 -1.078125 -0.21875q-0.34375 0 -0.71875 0.125q-0.359375 0.109375 -0.703125 0.34375q-0.328125 0.21875 -0.578125 0.515625q-0.25 0.296875 -0.359375 0.65625l0 2.296875q0.21875 0.53125 0.59375 0.984375q0.390625 0.453125 0.890625 0.703125q0.515625 0.25 1.03125 0.25zm6.718689 -1.71875l0 -6.125l2.5 0l0 5.578125q0 1.125 0.40625 1.703125q0.40625 0.5625 1.21875 0.5625q0.484375 0 0.953125 -0.1875q0.484375 -0.203125 0.875 -0.59375q0.40625 -0.390625 0.6875 -1.0l0 -6.0625l2.5 0l0 6.984375q0 0.390625 0.140625 0.5625q0.140625 0.15625 0.453125 0.203125l0 2.03125q-0.375 0.0625 -0.625 0.078125q-0.25 0.03125 -0.453125 0.03125q-0.671875 0 -1.09375 -0.296875q-0.421875 -0.3125 -0.5 -0.859375l-0.046875 -0.78125q-0.65625 0.984375 -1.6875 1.5q-1.015625 0.515625 -2.25 0.515625q-1.515625 0 -2.296875 -0.96875q-0.78125 -0.984375 -0.78125 -2.875zm17.445343 3.15625q-0.328125 0.125 -0.78125 0.296875q-0.4375 0.171875 -0.953125 0.265625q-0.515625 0.109375 -1.03125 0.109375q-0.6875 0 -1.265625 -0.234375q-0.578125 -0.25 -0.921875 -0.78125q-0.34375 -0.53125 -0.34375 -1.390625l0 -5.625l-1.296875 0l0 -1.921875l1.296875 0l0 -3.171875l2.5 0l0 3.171875l2.046875 0l0 1.921875l-2.046875 0l0 4.78125q0.015625 0.5 0.265625 0.734375q0.265625 0.21875 0.65625 0.21875q0.390625 0 0.765625 -0.125q0.375 -0.140625 0.609375 -0.234375l0.5 1.984375zm5.7052307 0.6875q-1.171875 0 -2.125 -0.390625q-0.953125 -0.40625 -1.625 -1.109375q-0.671875 -0.703125 -1.046875 -1.609375q-0.359375 -0.90625 -0.359375 -1.90625q0 -1.40625 0.625 -2.5625q0.625 -1.15625 1.796875 -1.84375q1.171875 -0.703125 2.75 -0.703125q1.609375 0 2.75 0.703125q1.140625 0.6875 1.734375 1.84375q0.609375 1.140625 0.609375 2.46875q0 0.21875 -0.015625 0.453125q-0.015625 0.234375 -0.03125 0.390625l-7.5625 0q0.078125 0.734375 0.4375 1.296875q0.359375 0.5625 0.921875 0.859375q0.578125 0.28125 1.234375 0.28125q0.75 0 1.40625 -0.359375q0.65625 -0.375 0.90625 -0.96875l2.140625 0.59375q-0.34375 0.75 -1.015625 1.328125q-0.65625 0.578125 -1.5625 0.90625q-0.890625 0.328125 -1.96875 0.328125zm-2.5625 -5.859375l5.125 0q-0.078125 -0.75 -0.421875 -1.296875q-0.34375 -0.546875 -0.90625 -0.859375q-0.5625 -0.3125 -1.25 -0.3125q-0.671875 0 -1.234375 0.3125q-0.546875 0.3125 -0.890625 0.859375q-0.34375 0.546875 -0.421875 1.296875z" fill-rule="nonzero"/><path fill="#000000" d="m281.73718 341.6041l0 -13.25l5.625 0q0.90625 0 1.671875 0.375q0.765625 0.375 1.328125 1.015625q0.578125 0.625 0.890625 1.421875q0.328125 0.78125 0.328125 1.59375q0 1.125 -0.53125 2.140625q-0.515625 1.0 -1.4375 1.640625q-0.90625 0.625 -2.15625 0.625l-3.140625 0l0 4.4375l-2.578125 0zm2.578125 -6.703125l2.984375 0q0.46875 0 0.84375 -0.25q0.375 -0.265625 0.59375 -0.75q0.21875 -0.5 0.21875 -1.140625q0 -0.6875 -0.25 -1.171875q-0.25 -0.484375 -0.65625 -0.71875q-0.390625 -0.25 -0.859375 -0.25l-2.875 0l0 4.28125zm8.794708 -6.921875l2.5 0l0 10.484375q0 0.671875 0.21875 0.90625q0.21875 0.234375 0.609375 0.234375q0.296875 0 0.609375 -0.0625q0.328125 -0.078125 0.578125 -0.1875l0.328125 1.890625q-0.5 0.25 -1.171875 0.375q-0.671875 0.140625 -1.21875 0.140625q-1.171875 0 -1.8125 -0.625q-0.640625 -0.625 -0.640625 -1.78125l0 -11.375zm5.257782 10.734375q0 -0.953125 0.53125 -1.671875q0.53125 -0.71875 1.484375 -1.109375q0.953125 -0.390625 2.1875 -0.390625q0.609375 0 1.234375 0.09375q0.640625 0.09375 1.109375 0.296875l0 -0.515625q0 -0.9375 -0.5625 -1.4375q-0.546875 -0.515625 -1.625 -0.515625q-0.796875 0 -1.53125 0.28125q-0.71875 0.28125 -1.53125 0.828125l-0.796875 -1.640625q0.96875 -0.640625 1.984375 -0.953125q1.015625 -0.3125 2.140625 -0.3125q2.09375 0 3.25 1.046875q1.171875 1.03125 1.171875 2.984375l0 3.109375q0 0.390625 0.140625 0.5625q0.140625 0.15625 0.453125 0.203125l0 2.03125q-0.328125 0.0625 -0.609375 0.09375q-0.265625 0.03125 -0.453125 0.03125q-0.75 0 -1.140625 -0.328125q-0.375 -0.34375 -0.46875 -0.828125l-0.046875 -0.5q-0.640625 0.828125 -1.59375 1.28125q-0.953125 0.4375 -1.9375 0.4375q-0.96875 0 -1.75 -0.390625q-0.765625 -0.40625 -1.203125 -1.109375q-0.4375 -0.703125 -0.4375 -1.578125zm6.078125 0.5q0.203125 -0.21875 0.328125 -0.4375q0.140625 -0.234375 0.140625 -0.421875l0 -0.984375q-0.453125 -0.1875 -0.984375 -0.28125q-0.515625 -0.109375 -0.96875 -0.109375q-0.984375 0 -1.609375 0.421875q-0.625 0.421875 -0.625 1.109375q0 0.375 0.203125 0.71875q0.21875 0.328125 0.609375 0.53125q0.390625 0.203125 0.9375 0.203125q0.546875 0 1.09375 -0.21875q0.546875 -0.21875 0.875 -0.53125zm11.068481 1.890625q-0.328125 0.125 -0.78125 0.296875q-0.4375 0.171875 -0.953125 0.265625q-0.515625 0.109375 -1.03125 0.109375q-0.6875 0 -1.265625 -0.234375q-0.578125 -0.25 -0.921875 -0.78125q-0.34375 -0.53125 -0.34375 -1.390625l0 -5.625l-1.296875 0l0 -1.921875l1.296875 0l0 -3.171875l2.5 0l0 3.171875l2.046875 0l0 1.921875l-2.046875 0l0 4.78125q0.015625 0.5 0.265625 0.734375q0.265625 0.21875 0.65625 0.21875q0.390625 0 0.765625 -0.125q0.375 -0.140625 0.609375 -0.234375l0.5 1.984375zm1.8610535 0.5l0 -7.34375l-1.28125 0l0 -1.90625l1.28125 0l0 -0.59375q0 -1.21875 0.390625 -2.09375q0.40625 -0.890625 1.140625 -1.375q0.75 -0.5 1.734375 -0.5q0.59375 0 1.203125 0.15625q0.609375 0.15625 1.203125 0.421875l-0.5 1.890625q-0.28125 -0.15625 -0.65625 -0.25q-0.375 -0.109375 -0.703125 -0.109375q-0.640625 0 -0.984375 0.453125q-0.328125 0.453125 -0.328125 1.3125l0 0.6875l2.390625 0l0 1.90625l-2.390625 0l0 7.34375l-2.5 0zm10.694031 0.1875q-1.203125 0 -2.15625 -0.390625q-0.9375 -0.40625 -1.609375 -1.109375q-0.65625 -0.71875 -1.015625 -1.625q-0.359375 -0.921875 -0.359375 -1.9375q0 -1.015625 0.359375 -1.921875q0.359375 -0.921875 1.015625 -1.625q0.671875 -0.71875 1.609375 -1.109375q0.953125 -0.40625 2.15625 -0.40625q1.1875 0 2.125 0.40625q0.953125 0.390625 1.625 1.109375q0.671875 0.703125 1.015625 1.625q0.34375 0.90625 0.34375 1.921875q0 1.015625 -0.34375 1.9375q-0.34375 0.90625 -1.015625 1.625q-0.65625 0.703125 -1.609375 1.109375q-0.953125 0.390625 -2.140625 0.390625zm-2.5625 -5.0625q0 0.859375 0.328125 1.53125q0.34375 0.65625 0.921875 1.03125q0.578125 0.375 1.3125 0.375q0.703125 0 1.28125 -0.375q0.578125 -0.390625 0.921875 -1.046875q0.34375 -0.671875 0.34375 -1.53125q0 -0.84375 -0.34375 -1.515625q-0.34375 -0.671875 -0.921875 -1.03125q-0.578125 -0.375 -1.28125 -0.375q-0.734375 0 -1.3125 0.390625q-0.578125 0.375 -0.921875 1.03125q-0.328125 0.65625 -0.328125 1.515625zm15.16507 -2.734375q-1.125 0 -2.03125 0.4375q-0.890625 0.4375 -1.28125 1.265625l0 5.90625l-2.5 0l0 -9.78125l2.296875 0l0 2.09375q0.515625 -1.0 1.3125 -1.578125q0.8125 -0.578125 1.703125 -0.640625q0.203125 0 0.3125 0q0.125 0 0.1875 0.015625l0 2.28125zm16.59497 7.609375l-2.5 0l0 -5.484375q0 -1.15625 -0.40625 -1.703125q-0.40625 -0.5625 -1.109375 -0.5625q-0.734375 0 -1.390625 0.578125q-0.65625 0.5625 -0.9375 1.484375l0 5.6875l-2.5 0l0 -5.484375q0 -1.171875 -0.40625 -1.71875q-0.40625 -0.546875 -1.109375 -0.546875q-0.71875 0 -1.390625 0.5625q-0.65625 0.5625 -0.9375 1.484375l0 5.703125l-2.5 0l0 -9.78125l2.25 0l0 1.8125q0.5625 -0.953125 1.5 -1.453125q0.9375 -0.515625 2.140625 -0.515625q1.21875 0 1.890625 0.59375q0.6875 0.59375 0.875 1.46875q0.59375 -1.0 1.515625 -1.53125q0.921875 -0.53125 2.078125 -0.53125q0.921875 0 1.484375 0.328125q0.578125 0.3125 0.890625 0.875q0.3125 0.546875 0.4375 1.234375q0.125 0.6875 0.125 1.40625l0 6.09375z" fill-rule="nonzero"/><path fill="#d9ead3" d="m266.8647 8.748442l99.367035 0l0 0c5.270874 0 10.325867 2.0938492 14.052948 5.8209248c3.7270813 3.7270756 5.820923 8.782076 5.820923 14.052958l0 99.36703l-119.240906 0z" fill-rule="evenodd"/><path stroke="#000000" stroke-width="4.0" stroke-linejoin="round" stroke-linecap="butt" d="m266.8647 8.748442l99.367035 0l0 0c5.270874 0 10.325867 2.0938492 14.052948 5.8209248c3.7270813 3.7270756 5.820923 8.782076 5.820923 14.052958l0 99.36703l-119.240906 0z" fill-rule="evenodd"/><path fill="#000000" fill-opacity="0.0" d="m266.87994 39.46991l119.240906 0l0 64.62288l-119.240906 0z" fill-rule="evenodd"/><path fill="#000000" d="m297.29645 55.546158l0 10.84375l-1.3125 0l0 -13.25l1.09375 0l8.6875 11.046875l0 -11.03125l1.3125 0l0 13.234375l-1.21875 0l-8.5625 -10.84375zm12.746368 6.828125l0 -5.703125l1.265625 0l0 5.484375q0 1.65625 0.5625 2.484375q0.578125 0.8125 1.6875 0.8125q0.75 0 1.453125 -0.3125q0.703125 -0.328125 1.234375 -0.9375q0.546875 -0.609375 0.828125 -1.40625l0 -6.125l1.265625 0l0 8.1875q0 0.265625 0.109375 0.390625q0.109375 0.109375 0.34375 0.140625l0 1.0q-0.234375 0.015625 -0.359375 0.015625q-0.125 0.015625 -0.25 0.015625q-0.375 -0.03125 -0.640625 -0.28125q-0.265625 -0.265625 -0.28125 -0.640625l-0.046875 -1.3125q-0.625 1.125 -1.71875 1.765625q-1.09375 0.625 -2.359375 0.625q-1.53125 0 -2.3125 -1.0625q-0.78125 -1.0625 -0.78125 -3.140625zm25.628693 4.015625l-1.265625 0l0 -5.421875q0 -1.703125 -0.546875 -2.5q-0.546875 -0.8125 -1.609375 -0.8125q-1.09375 0 -1.96875 0.796875q-0.859375 0.78125 -1.21875 2.0l0 5.9375l-1.265625 0l0 -5.421875q0 -1.71875 -0.53125 -2.515625q-0.515625 -0.796875 -1.59375 -0.796875q-1.078125 0 -1.96875 0.765625q-0.875 0.765625 -1.21875 2.015625l0 5.953125l-1.265625 0l0 -9.71875l1.15625 0l0 2.203125q0.609375 -1.140625 1.5625 -1.75q0.96875 -0.625 2.140625 -0.625q1.21875 0 1.953125 0.703125q0.75 0.6875 0.921875 1.796875q0.671875 -1.234375 1.609375 -1.859375q0.953125 -0.640625 2.140625 -0.640625q0.828125 0 1.390625 0.296875q0.5625 0.296875 0.90625 0.859375q0.359375 0.546875 0.515625 1.328125q0.15625 0.765625 0.15625 1.71875l0 5.6875zm2.941986 0l0 -13.25l5.484375 0q0.859375 0 1.578125 0.359375q0.71875 0.359375 1.234375 0.96875q0.53125 0.59375 0.828125 1.34375q0.296875 0.734375 0.296875 1.5q0 1.078125 -0.484375 2.046875q-0.46875 0.953125 -1.328125 1.546875q-0.859375 0.59375 -2.015625 0.59375l-4.28125 0l0 4.890625l-1.3125 0zm1.3125 -6.046875l4.234375 0q0.78125 0 1.359375 -0.421875q0.578125 -0.4375 0.890625 -1.125q0.328125 -0.6875 0.328125 -1.484375q0 -0.828125 -0.375 -1.515625q-0.375 -0.6875 -0.984375 -1.09375q-0.609375 -0.40625 -1.328125 -0.40625l-4.125 0l0 6.046875zm10.588562 9.03125q0.265625 0.015625 0.5 0.015625q0.25 0.015625 0.359375 -0.015625q0.234375 -0.03125 0.4375 -0.265625q0.203125 -0.21875 0.484375 -0.859375q0.28125 -0.625 0.78125 -1.859375l-4.234375 -9.71875l1.34375 0l3.5625 8.40625l3.28125 -8.40625l1.265625 0l-5.03125 12.53125q-0.125 0.359375 -0.390625 0.65625q-0.265625 0.3125 -0.65625 0.484375q-0.375 0.1875 -0.9375 0.203125q-0.15625 0.015625 -0.34375 0q-0.171875 0 -0.421875 -0.03125l0 -1.140625z" fill-rule="nonzero"/><path fill="#000000" d="m292.053 79.64928l1.421875 0l0.0625 1.46875q0.390625 -0.46875 0.765625 -0.78125q0.375 -0.3125 0.734375 -0.5q0.359375 -0.203125 0.734375 -0.28125q0.375 -0.078125 0.78125 -0.078125q1.40625 0 2.125 0.84375q0.734375 0.828125 0.734375 2.5l0 5.96875l-1.59375 0l0 -5.84375q0 -1.078125 -0.40625 -1.578125q-0.390625 -0.515625 -1.1875 -0.515625q-0.28125 0 -0.5625 0.09375q-0.28125 0.078125 -0.578125 0.296875q-0.296875 0.203125 -0.65625 0.578125q-0.34375 0.359375 -0.78125 0.90625l0 6.0625l-1.59375 0l0 -9.140625zm9.804169 4.765625q0 -1.171875 0.3125 -2.078125q0.3125 -0.90625 0.90625 -1.53125q0.59375 -0.625 1.40625 -0.9375q0.828125 -0.328125 1.84375 -0.328125q0.4375 0 0.859375 0.0625q0.421875 0.046875 0.828125 0.15625l0 -3.84375l1.59375 0l0 12.875l-1.421875 0l-0.046875 -1.734375q-0.671875 0.96875 -1.453125 1.4375q-0.765625 0.453125 -1.671875 0.453125q-0.78125 0 -1.375 -0.3125q-0.59375 -0.328125 -1.0 -0.921875q-0.390625 -0.609375 -0.59375 -1.4375q-0.1875 -0.84375 -0.1875 -1.859375zm1.609375 -0.109375q0 1.65625 0.484375 2.484375q0.5 0.8125 1.390625 0.8125q0.59375 0 1.265625 -0.53125q0.671875 -0.546875 1.40625 -1.609375l0 -4.234375q-0.390625 -0.1875 -0.859375 -0.28125q-0.46875 -0.09375 -0.9375 -0.09375q-1.296875 0 -2.03125 0.84375q-0.71875 0.828125 -0.71875 2.609375zm14.976044 4.484375l-0.03125 -1.234375q-0.75 0.75 -1.515625 1.078125q-0.765625 0.3125 -1.625 0.3125q-0.78125 0 -1.34375 -0.1875q-0.546875 -0.203125 -0.90625 -0.546875q-0.359375 -0.359375 -0.53125 -0.828125q-0.15625 -0.484375 -0.15625 -1.03125q0 -1.375 1.015625 -2.15625q1.03125 -0.78125 3.03125 -0.78125l1.890625 0l0 -0.796875q0 -0.8125 -0.515625 -1.296875q-0.515625 -0.5 -1.578125 -0.5q-0.78125 0 -1.53125 0.1875q-0.75 0.171875 -1.546875 0.484375l0 -1.4375q0.296875 -0.109375 0.65625 -0.203125q0.375 -0.109375 0.78125 -0.1875q0.40625 -0.078125 0.859375 -0.125q0.453125 -0.0625 0.90625 -0.0625q0.828125 0 1.484375 0.1875q0.671875 0.171875 1.125 0.546875q0.46875 0.375 0.703125 0.953125q0.25 0.5625 0.25 1.328125l0 6.296875l-1.421875 0zm-0.171875 -4.15625l-2.015625 0q-0.578125 0 -1.015625 0.125q-0.421875 0.109375 -0.703125 0.328125q-0.265625 0.21875 -0.40625 0.53125q-0.125 0.296875 -0.125 0.671875q0 0.265625 0.078125 0.515625q0.078125 0.234375 0.265625 0.421875q0.1875 0.1875 0.46875 0.296875q0.296875 0.109375 0.71875 0.109375q0.546875 0 1.25 -0.328125q0.703125 -0.34375 1.484375 -1.0625l0 -1.609375zm4.9291687 -4.984375l1.453125 0l0.046875 1.6875q0.8125 -0.984375 1.59375 -1.421875q0.796875 -0.4375 1.59375 -0.4375q1.421875 0 2.15625 0.921875q0.734375 0.921875 0.671875 2.734375l-1.59375 0q0.015625 -1.203125 -0.359375 -1.734375q-0.375 -0.546875 -1.109375 -0.546875q-0.3125 0 -0.640625 0.109375q-0.328125 0.109375 -0.671875 0.359375q-0.328125 0.25 -0.71875 0.640625q-0.375 0.390625 -0.8125 0.953125l0 5.875l-1.609375 0l0 -9.140625zm10.257294 0l1.453125 0l0.046875 1.6875q0.8125 -0.984375 1.59375 -1.421875q0.796875 -0.4375 1.59375 -0.4375q1.421875 0 2.15625 0.921875q0.734375 0.921875 0.671875 2.734375l-1.59375 0q0.015625 -1.203125 -0.359375 -1.734375q-0.375 -0.546875 -1.109375 -0.546875q-0.3125 0 -0.640625 0.109375q-0.328125 0.109375 -0.671875 0.359375q-0.328125 0.25 -0.71875 0.640625q-0.375 0.390625 -0.8125 0.953125l0 5.875l-1.609375 0l0 -9.140625zm15.757294 9.140625l-0.03125 -1.234375q-0.75 0.75 -1.515625 1.078125q-0.765625 0.3125 -1.625 0.3125q-0.78125 0 -1.34375 -0.1875q-0.546875 -0.203125 -0.90625 -0.546875q-0.359375 -0.359375 -0.53125 -0.828125q-0.15625 -0.484375 -0.15625 -1.03125q0 -1.375 1.015625 -2.15625q1.03125 -0.78125 3.03125 -0.78125l1.890625 0l0 -0.796875q0 -0.8125 -0.515625 -1.296875q-0.515625 -0.5 -1.578125 -0.5q-0.78125 0 -1.53125 0.1875q-0.75 0.171875 -1.546875 0.484375l0 -1.4375q0.296875 -0.109375 0.65625 -0.203125q0.375 -0.109375 0.78125 -0.1875q0.40625 -0.078125 0.859375 -0.125q0.453125 -0.0625 0.90625 -0.0625q0.828125 0 1.484375 0.1875q0.671875 0.171875 1.125 0.546875q0.46875 0.375 0.703125 0.953125q0.25 0.5625 0.25 1.328125l0 6.296875l-1.421875 0zm-0.171875 -4.15625l-2.015625 0q-0.578125 0 -1.015625 0.125q-0.421875 0.109375 -0.703125 0.328125q-0.265625 0.21875 -0.40625 0.53125q-0.125 0.296875 -0.125 0.671875q0 0.265625 0.078125 0.515625q0.078125 0.234375 0.265625 0.421875q0.1875 0.1875 0.46875 0.296875q0.296875 0.109375 0.71875 0.109375q0.546875 0 1.25 -0.328125q0.703125 -0.34375 1.484375 -1.0625l0 -1.609375zm12.694794 -4.984375l-3.109375 8.171875q-0.484375 1.25 -1.0 2.15625q-0.515625 0.90625 -1.125 1.484375q-0.609375 0.578125 -1.34375 0.84375q-0.734375 0.28125 -1.625 0.28125q-0.25 0 -0.4375 -0.015625q-0.1875 -0.015625 -0.421875 -0.03125l0 -1.4375q0.203125 0.03125 0.4375 0.046875q0.25 0.03125 0.5 0.03125q0.4375 0 0.8125 -0.140625q0.390625 -0.125 0.71875 -0.40625q0.34375 -0.28125 0.65625 -0.75q0.3125 -0.453125 0.59375 -1.09375l-3.65625 -9.140625l1.8125 0l2.3125 6.046875l0.46875 1.421875l0.53125 -1.46875l2.140625 -6.0l1.734375 0z" fill-rule="nonzero"/><path fill="#d9ead3" d="m393.25583 135.1798l99.367035 0l0 0c5.270874 0 10.325867 2.0938568 14.052948 5.820938c3.7270813 3.727066 5.8208923 8.782074 5.8208923 14.052948l0 99.36702l-119.240875 0z" fill-rule="evenodd"/><path stroke="#000000" stroke-width="4.0" stroke-linejoin="round" stroke-linecap="butt" d="m393.25583 135.1798l99.367035 0l0 0c5.270874 0 10.325867 2.0938568 14.052948 5.820938c3.7270813 3.727066 5.8208923 8.782074 5.8208923 14.052948l0 99.36702l-119.240875 0z" fill-rule="evenodd"/><path fill="#000000" fill-opacity="0.0" d="m393.2711 165.90126l119.24094 0l0 64.62288l-119.24094 0z" fill-rule="evenodd"/><path fill="#000000" d="m433.3823 192.82126l0 -13.25l4.5 0q2.109375 0 3.515625 0.890625q1.40625 0.890625 2.109375 2.390625q0.71875 1.5 0.71875 3.328125q0 2.015625 -0.78125 3.515625q-0.765625 1.484375 -2.203125 2.3125q-1.421875 0.8125 -3.359375 0.8125l-4.5 0zm9.53125 -6.640625q0 -1.59375 -0.59375 -2.8125q-0.578125 -1.234375 -1.703125 -1.9375q-1.109375 -0.703125 -2.734375 -0.703125l-3.1875 0l0 10.9375l3.1875 0q1.640625 0 2.75 -0.71875q1.125 -0.734375 1.703125 -1.96875q0.578125 -1.25 0.578125 -2.796875zm2.686432 3.84375q0 -0.921875 0.515625 -1.578125q0.53125 -0.65625 1.453125 -1.015625q0.921875 -0.375 2.140625 -0.375q0.703125 0 1.46875 0.109375q0.765625 0.109375 1.375 0.34375l0 -0.828125q0 -1.234375 -0.734375 -1.953125q-0.734375 -0.734375 -2.015625 -0.734375q-0.78125 0 -1.546875 0.296875q-0.75 0.28125 -1.5625 0.84375l-0.484375 -0.890625q0.953125 -0.65625 1.859375 -0.984375q0.921875 -0.328125 1.859375 -0.328125q1.796875 0 2.84375 1.03125q1.046875 1.03125 1.046875 2.828125l0 4.5q0 0.265625 0.109375 0.390625q0.109375 0.109375 0.359375 0.140625l0 1.0q-0.21875 0.015625 -0.375 0.03125q-0.140625 0.03125 -0.203125 0q-0.46875 -0.015625 -0.71875 -0.296875q-0.234375 -0.28125 -0.25 -0.59375l-0.03125 -0.703125q-0.640625 0.828125 -1.6875 1.296875q-1.046875 0.453125 -2.125 0.453125q-0.9375 0 -1.703125 -0.390625q-0.75 -0.40625 -1.171875 -1.09375q-0.421875 -0.6875 -0.421875 -1.5zm6.515625 0.75q0.203125 -0.265625 0.3125 -0.5q0.125 -0.25 0.125 -0.4375l0 -1.421875q-0.640625 -0.234375 -1.328125 -0.359375q-0.671875 -0.140625 -1.359375 -0.140625q-1.375 0 -2.21875 0.546875q-0.828125 0.53125 -0.828125 1.46875q0 0.546875 0.28125 1.015625q0.28125 0.46875 0.8125 0.78125q0.546875 0.3125 1.28125 0.3125q0.90625 0 1.703125 -0.359375q0.796875 -0.359375 1.21875 -0.90625zm7.6364136 2.234375q-1.203125 0 -2.234375 -0.390625q-1.015625 -0.390625 -1.765625 -1.203125l0.53125 -0.890625q0.8125 0.765625 1.640625 1.109375q0.828125 0.34375 1.765625 0.34375q1.140625 0 1.84375 -0.453125q0.71875 -0.453125 0.71875 -1.3125q0 -0.578125 -0.34375 -0.890625q-0.34375 -0.3125 -1.0 -0.5q-0.640625 -0.203125 -1.53125 -0.421875q-1.015625 -0.28125 -1.703125 -0.578125q-0.671875 -0.3125 -1.015625 -0.78125q-0.34375 -0.484375 -0.34375 -1.25q0 -0.953125 0.46875 -1.578125q0.484375 -0.625 1.3125 -0.953125q0.828125 -0.328125 1.859375 -0.328125q1.109375 0 1.96875 0.359375q0.859375 0.359375 1.40625 0.984375l-0.609375 0.859375q-0.53125 -0.59375 -1.25 -0.875q-0.71875 -0.296875 -1.59375 -0.296875q-0.59375 0 -1.140625 0.15625q-0.53125 0.15625 -0.890625 0.53125q-0.34375 0.359375 -0.34375 0.984375q0 0.53125 0.265625 0.828125q0.265625 0.28125 0.78125 0.484375q0.53125 0.1875 1.296875 0.40625q1.09375 0.296875 1.90625 0.609375q0.828125 0.3125 1.28125 0.796875q0.453125 0.484375 0.453125 1.359375q0 1.359375 -1.03125 2.125q-1.03125 0.765625 -2.703125 0.765625zm12.760956 -0.1875l-3.609375 -4.984375l-2.0625 1.9375l0 3.046875l-1.265625 0l0 -13.625l1.265625 0l0 9.21875l5.5 -5.296875l1.40625 0l-3.984375 3.96875l4.125 5.734375l-1.375 0z" fill-rule="nonzero"/><path fill="#000000" d="m416.32748 209.14314q0 0.84375 -0.140625 1.640625q-0.125 0.78125 -0.421875 1.453125q-0.28125 0.671875 -0.75 1.21875q-0.46875 0.546875 -1.140625 0.953125q-0.671875 0.390625 -1.5625 0.609375q-0.890625 0.203125 -2.03125 0.203125l-2.546875 0l0 -11.90625l3.0625 0q2.78125 0 4.15625 1.4375q1.375 1.4375 1.375 4.390625zm-1.703125 0.109375q0 -1.265625 -0.234375 -2.140625q-0.234375 -0.875 -0.71875 -1.40625q-0.484375 -0.546875 -1.21875 -0.78125q-0.734375 -0.25 -1.703125 -0.25l-1.40625 0l0 9.140625l1.21875 0q4.0625 0 4.0625 -4.5625zm9.694794 5.96875l-0.03125 -1.234375q-0.75 0.75 -1.515625 1.078125q-0.765625 0.3125 -1.625 0.3125q-0.78125 0 -1.34375 -0.1875q-0.546875 -0.203125 -0.90625 -0.546875q-0.359375 -0.359375 -0.53125 -0.828125q-0.15625 -0.484375 -0.15625 -1.03125q0 -1.375 1.015625 -2.15625q1.03125 -0.78125 3.03125 -0.78125l1.890625 0l0 -0.796875q0 -0.8125 -0.515625 -1.296875q-0.515625 -0.5 -1.578125 -0.5q-0.78125 0 -1.53125 0.1875q-0.75 0.171875 -1.546875 0.484375l0 -1.4375q0.296875 -0.109375 0.65625 -0.203125q0.375 -0.109375 0.78125 -0.1875q0.40625 -0.078125 0.859375 -0.125q0.453125 -0.0625 0.90625 -0.0625q0.828125 0 1.484375 0.1875q0.671875 0.171875 1.125 0.546875q0.46875 0.375 0.703125 0.953125q0.25 0.5625 0.25 1.328125l0 6.296875l-1.421875 0zm-0.171875 -4.15625l-2.015625 0q-0.578125 0 -1.015625 0.125q-0.421875 0.109375 -0.703125 0.328125q-0.265625 0.21875 -0.40625 0.53125q-0.125 0.296875 -0.125 0.671875q0 0.265625 0.078125 0.515625q0.078125 0.234375 0.265625 0.421875q0.1875 0.1875 0.46875 0.296875q0.296875 0.109375 0.71875 0.109375q0.546875 0 1.25 -0.328125q0.703125 -0.34375 1.484375 -1.0625l0 -1.609375zm11.929169 4.03125q-0.53125 0.140625 -1.109375 0.1875q-0.578125 0.0625 -1.171875 0.0625q-1.71875 0 -2.5625 -0.78125q-0.84375 -0.78125 -0.84375 -2.390625l0 -4.765625l-2.5625 0l0 -1.328125l2.5625 0l0 -2.515625l1.578125 -0.40625l0 2.921875l4.109375 0l0 1.328125l-4.109375 0l0 4.640625q0 0.984375 0.515625 1.46875q0.53125 0.484375 1.546875 0.484375q0.4375 0 0.953125 -0.0625q0.53125 -0.0625 1.09375 -0.21875l0 1.375zm8.757294 0.125l-0.03125 -1.234375q-0.75 0.75 -1.515625 1.078125q-0.765625 0.3125 -1.625 0.3125q-0.78125 0 -1.34375 -0.1875q-0.546875 -0.203125 -0.90625 -0.546875q-0.359375 -0.359375 -0.53125 -0.828125q-0.15625 -0.484375 -0.15625 -1.03125q0 -1.375 1.015625 -2.15625q1.03125 -0.78125 3.03125 -0.78125l1.890625 0l0 -0.796875q0 -0.8125 -0.515625 -1.296875q-0.515625 -0.5 -1.578125 -0.5q-0.78125 0 -1.53125 0.1875q-0.75 0.171875 -1.546875 0.484375l0 -1.4375q0.296875 -0.109375 0.65625 -0.203125q0.375 -0.109375 0.78125 -0.1875q0.40625 -0.078125 0.859375 -0.125q0.453125 -0.0625 0.90625 -0.0625q0.828125 0 1.484375 0.1875q0.671875 0.171875 1.125 0.546875q0.46875 0.375 0.703125 0.953125q0.25 0.5625 0.25 1.328125l0 6.296875l-1.421875 0zm-0.171875 -4.15625l-2.015625 0q-0.578125 0 -1.015625 0.125q-0.421875 0.109375 -0.703125 0.328125q-0.265625 0.21875 -0.40625 0.53125q-0.125 0.296875 -0.125 0.671875q0 0.265625 0.078125 0.515625q0.078125 0.234375 0.265625 0.421875q0.1875 0.1875 0.46875 0.296875q0.296875 0.109375 0.71875 0.109375q0.546875 0 1.25 -0.328125q0.703125 -0.34375 1.484375 -1.0625l0 -1.609375zm13.272919 4.15625l-1.765625 0l-0.84375 -2.59375l-4.953125 0l-0.828125 2.59375l-1.6875 0l3.953125 -11.90625l2.21875 0l3.90625 11.90625zm-3.0625 -4.046875l-2.015625 -6.359375l-2.015625 6.359375l4.03125 0zm4.9760437 -5.09375l1.453125 0l0.046875 1.6875q0.8125 -0.984375 1.59375 -1.421875q0.796875 -0.4375 1.59375 -0.4375q1.421875 0 2.15625 0.921875q0.734375 0.921875 0.671875 2.734375l-1.59375 0q0.015625 -1.203125 -0.359375 -1.734375q-0.375 -0.546875 -1.109375 -0.546875q-0.3125 0 -0.640625 0.109375q-0.328125 0.109375 -0.671875 0.359375q-0.328125 0.25 -0.71875 0.640625q-0.375 0.390625 -0.8125 0.953125l0 5.875l-1.609375 0l0 -9.140625zm10.257294 0l1.453125 0l0.046875 1.6875q0.8125 -0.984375 1.59375 -1.421875q0.796875 -0.4375 1.59375 -0.4375q1.421875 0 2.15625 0.921875q0.734375 0.921875 0.671875 2.734375l-1.59375 0q0.015625 -1.203125 -0.359375 -1.734375q-0.375 -0.546875 -1.109375 -0.546875q-0.3125 0 -0.640625 0.109375q-0.328125 0.109375 -0.671875 0.359375q-0.328125 0.25 -0.71875 0.640625q-0.375 0.390625 -0.8125 0.953125l0 5.875l-1.609375 0l0 -9.140625zm15.757294 9.140625l-0.03125 -1.234375q-0.75 0.75 -1.515625 1.078125q-0.765625 0.3125 -1.625 0.3125q-0.78125 0 -1.34375 -0.1875q-0.546875 -0.203125 -0.90625 -0.546875q-0.359375 -0.359375 -0.53125 -0.828125q-0.15625 -0.484375 -0.15625 -1.03125q0 -1.375 1.015625 -2.15625q1.03125 -0.78125 3.03125 -0.78125l1.890625 0l0 -0.796875q0 -0.8125 -0.515625 -1.296875q-0.515625 -0.5 -1.578125 -0.5q-0.78125 0 -1.53125 0.1875q-0.75 0.171875 -1.546875 0.484375l0 -1.4375q0.296875 -0.109375 0.65625 -0.203125q0.375 -0.109375 0.78125 -0.1875q0.40625 -0.078125 0.859375 -0.125q0.453125 -0.0625 0.90625 -0.0625q0.828125 0 1.484375 0.1875q0.671875 0.171875 1.125 0.546875q0.46875 0.375 0.703125 0.953125q0.25 0.5625 0.25 1.328125l0 6.296875l-1.421875 0zm-0.171875 -4.15625l-2.015625 0q-0.578125 0 -1.015625 0.125q-0.421875 0.109375 -0.703125 0.328125q-0.265625 0.21875 -0.40625 0.53125q-0.125 0.296875 -0.125 0.671875q0 0.265625 0.078125 0.515625q0.078125 0.234375 0.265625 0.421875q0.1875 0.1875 0.46875 0.296875q0.296875 0.109375 0.71875 0.109375q0.546875 0 1.25 -0.328125q0.703125 -0.34375 1.484375 -1.0625l0 -1.609375zm12.694794 -4.984375l-3.109375 8.171875q-0.484375 1.25 -1.0 2.15625q-0.515625 0.90625 -1.125 1.484375q-0.609375 0.578125 -1.34375 0.84375q-0.734375 0.28125 -1.625 0.28125q-0.25 0 -0.4375 -0.015625q-0.1875 -0.015625 -0.421875 -0.03125l0 -1.4375q0.203125 0.03125 0.4375 0.046875q0.25 0.03125 0.5 0.03125q0.4375 0 0.8125 -0.140625q0.390625 -0.125 0.71875 -0.40625q0.34375 -0.28125 0.65625 -0.75q0.3125 -0.453125 0.59375 -1.09375l-3.65625 -9.140625l1.8125 0l2.3125 6.046875l0.46875 1.421875l0.53125 -1.46875l2.140625 -6.0l1.734375 0z" fill-rule="nonzero"/><path fill="#cfe2f3" d="m512.50494 268.75034l0 99.367035l0 0c0 5.270874 -2.0938416 10.325867 -5.820923 14.052948c-3.7270813 3.7270813 -8.782074 5.820923 -14.052948 5.820923l-99.367035 0l0 -119.240906z" fill-rule="evenodd"/><path stroke="#000000" stroke-width="4.0" stroke-linejoin="round" stroke-linecap="butt" d="m512.50494 268.75034l0 99.367035l0 0c0 5.270874 -2.0938416 10.325867 -5.820923 14.052948c-3.7270813 3.7270813 -8.782074 5.820923 -14.052948 5.820923l-99.367035 0l0 -119.240906z" fill-rule="evenodd"/><path fill="#000000" fill-opacity="0.0" d="m393.26404 308.33994l119.240906 0l0 42.020386l-119.240906 0z" fill-rule="evenodd"/><path fill="#000000" d="m445.90854 322.00995l0 13.25l-1.28125 0l0 -6.1875l-7.859375 0l0 6.1875l-1.3125 0l0 -13.25l1.3125 0l0 5.90625l7.859375 0l0 -5.90625l1.28125 0zm3.3151855 13.25l0 -13.25l5.484375 0q0.859375 0 1.578125 0.359375q0.71875 0.359375 1.234375 0.96875q0.53125 0.59375 0.828125 1.34375q0.296875 0.734375 0.296875 1.5q0 1.078125 -0.484375 2.046875q-0.46875 0.953125 -1.328125 1.546875q-0.859375 0.59375 -2.015625 0.59375l-4.28125 0l0 4.890625l-1.3125 0zm1.3125 -6.046875l4.234375 0q0.78125 0 1.359375 -0.421875q0.578125 -0.4375 0.890625 -1.125q0.328125 -0.6875 0.328125 -1.484375q0 -0.828125 -0.375 -1.515625q-0.375 -0.6875 -0.984375 -1.09375q-0.609375 -0.40625 -1.328125 -0.40625l-4.125 0l0 6.046875zm9.416687 -0.671875q0 -1.203125 0.421875 -2.375q0.421875 -1.171875 1.21875 -2.125q0.8125 -0.96875 1.984375 -1.53125q1.171875 -0.578125 2.671875 -0.578125q1.765625 0 3.015625 0.8125q1.265625 0.8125 1.859375 2.09375l-1.015625 0.625q-0.4375 -0.875 -1.09375 -1.390625q-0.640625 -0.515625 -1.390625 -0.734375q-0.734375 -0.21875 -1.453125 -0.21875q-1.203125 0 -2.125 0.484375q-0.90625 0.46875 -1.53125 1.265625q-0.625 0.78125 -0.9375 1.765625q-0.3125 0.96875 -0.3125 1.984375q0 1.09375 0.359375 2.109375q0.375 1.0 1.046875 1.78125q0.671875 0.765625 1.578125 1.234375q0.90625 0.453125 1.96875 0.453125q0.75 0 1.53125 -0.25q0.78125 -0.265625 1.46875 -0.8125q0.6875 -0.546875 1.09375 -1.40625l1.078125 0.5625q-0.40625 0.984375 -1.265625 1.6875q-0.859375 0.6875 -1.921875 1.046875q-1.046875 0.34375 -2.046875 0.34375q-1.375 0 -2.515625 -0.578125q-1.125 -0.59375 -1.96875 -1.5625q-0.828125 -0.984375 -1.28125 -2.203125q-0.4375 -1.234375 -0.4375 -2.484375z" fill-rule="nonzero"/><path fill="#cfe2f3" d="m386.10678 395.1347l0 99.367035l0 0c0 5.270874 -2.093872 10.325897 -5.820923 14.052948c-3.7270813 3.7271118 -8.782074 5.820923 -14.0529785 5.820923l-99.367004 0l0 -119.240906z" fill-rule="evenodd"/><path stroke="#000000" stroke-width="4.0" stroke-linejoin="round" stroke-linecap="butt" d="m386.10678 395.1347l0 99.367035l0 0c0 5.270874 -2.093872 10.325897 -5.820923 14.052948c-3.7270813 3.7271118 -8.782074 5.820923 -14.0529785 5.820923l-99.367004 0l0 -119.240906z" fill-rule="evenodd"/><path fill="#000000" fill-opacity="0.0" d="m266.86588 435.9585l119.240906 0l0 42.020386l-119.240906 0z" fill-rule="evenodd"/><path fill="#000000" d="m301.438 456.15976q0 -1.203125 0.421875 -2.375q0.421875 -1.171875 1.21875 -2.125q0.8125 -0.96875 1.984375 -1.53125q1.171875 -0.578125 2.671875 -0.578125q1.765625 0 3.015625 0.8125q1.265625 0.8125 1.859375 2.09375l-1.015625 0.625q-0.4375 -0.875 -1.09375 -1.390625q-0.640625 -0.515625 -1.390625 -0.734375q-0.734375 -0.21875 -1.453125 -0.21875q-1.203125 0 -2.125 0.484375q-0.90625 0.46875 -1.53125 1.265625q-0.625 0.78125 -0.9375 1.765625q-0.3125 0.96875 -0.3125 1.984375q0 1.09375 0.359375 2.109375q0.375 1.0 1.046875 1.78125q0.671875 0.765625 1.578125 1.234375q0.90625 0.453125 1.96875 0.453125q0.75 0 1.53125 -0.25q0.78125 -0.265625 1.46875 -0.8125q0.6875 -0.546875 1.09375 -1.40625l1.078125 0.5625q-0.40625 0.984375 -1.265625 1.6875q-0.859375 0.6875 -1.921875 1.046875q-1.046875 0.34375 -2.046875 0.34375q-1.375 0 -2.515625 -0.578125q-1.125 -0.59375 -1.96875 -1.5625q-0.828125 -0.984375 -1.28125 -2.203125q-0.4375 -1.234375 -0.4375 -2.484375zm13.470062 -6.90625l1.265625 0l0 11.421875q0 0.734375 0.265625 0.953125q0.265625 0.21875 0.640625 0.21875q0.328125 0 0.65625 -0.0625q0.34375 -0.078125 0.59375 -0.15625l0.21875 1.03125q-0.359375 0.140625 -0.875 0.234375q-0.5 0.09375 -0.875 0.09375q-0.859375 0 -1.375 -0.5q-0.515625 -0.5 -0.515625 -1.375l0 -11.859375zm9.168243 13.8125q-1.046875 0 -1.9375 -0.390625q-0.890625 -0.40625 -1.53125 -1.109375q-0.640625 -0.703125 -1.0 -1.609375q-0.34375 -0.90625 -0.34375 -1.90625q0 -1.046875 0.34375 -1.953125q0.359375 -0.90625 1.015625 -1.59375q0.65625 -0.703125 1.53125 -1.109375q0.890625 -0.40625 1.9375 -0.40625q1.046875 0 1.921875 0.40625q0.875 0.40625 1.515625 1.109375q0.65625 0.6875 1.015625 1.59375q0.359375 0.90625 0.359375 1.953125q0 1.0 -0.359375 1.90625q-0.359375 0.90625 -1.0 1.609375q-0.640625 0.703125 -1.53125 1.109375q-0.875 0.390625 -1.9375 0.390625zm-3.53125 -5.0q0 1.078125 0.46875 1.96875q0.484375 0.890625 1.28125 1.40625q0.8125 0.5 1.78125 0.5q0.96875 0 1.765625 -0.515625q0.796875 -0.53125 1.28125 -1.421875q0.484375 -0.90625 0.484375 -1.96875q0 -1.09375 -0.484375 -1.984375q-0.484375 -0.890625 -1.28125 -1.40625q-0.796875 -0.53125 -1.765625 -0.53125q-0.96875 0 -1.765625 0.546875q-0.796875 0.53125 -1.28125 1.421875q-0.484375 0.890625 -0.484375 1.984375zm10.397339 0.796875l0 -5.703125l1.265625 0l0 5.484375q0 1.65625 0.5625 2.484375q0.578125 0.8125 1.6875 0.8125q0.75 0 1.453125 -0.3125q0.703125 -0.328125 1.234375 -0.9375q0.546875 -0.609375 0.828125 -1.40625l0 -6.125l1.265625 0l0 8.1875q0 0.265625 0.109375 0.390625q0.109375 0.109375 0.34375 0.140625l0 1.0q-0.234375 0.015625 -0.359375 0.015625q-0.125 0.015625 -0.25 0.015625q-0.375 -0.03125 -0.640625 -0.28125q-0.265625 -0.265625 -0.28125 -0.640625l-0.046875 -1.3125q-0.625 1.125 -1.71875 1.765625q-1.09375 0.625 -2.359375 0.625q-1.53125 0 -2.3125 -1.0625q-0.78125 -1.0625 -0.78125 -3.140625zm10.519318 -0.8125q0 -1.390625 0.5625 -2.53125q0.578125 -1.140625 1.578125 -1.828125q1.015625 -0.703125 2.296875 -0.703125q1.21875 0 2.171875 0.65625q0.96875 0.640625 1.5 1.546875l0 -5.9375l1.265625 0l0 12.09375q0 0.265625 0.109375 0.390625q0.125 0.109375 0.34375 0.140625l0 1.0q-0.375 0.0625 -0.578125 0.03125q-0.390625 -0.015625 -0.6875 -0.3125q-0.296875 -0.296875 -0.296875 -0.65625l0 -0.953125q-0.578125 0.953125 -1.578125 1.515625q-0.984375 0.5625 -2.046875 0.5625q-1.0 0 -1.859375 -0.40625q-0.84375 -0.421875 -1.46875 -1.125q-0.625 -0.703125 -0.96875 -1.609375q-0.34375 -0.90625 -0.34375 -1.875zm8.109375 1.484375l0 -3.0q-0.234375 -0.671875 -0.78125 -1.21875q-0.546875 -0.546875 -1.234375 -0.875q-0.671875 -0.328125 -1.34375 -0.328125q-0.78125 0 -1.421875 0.328125q-0.625 0.328125 -1.09375 0.890625q-0.453125 0.546875 -0.703125 1.265625q-0.234375 0.703125 -0.234375 1.453125q0 0.78125 0.265625 1.5q0.28125 0.703125 0.78125 1.25q0.5 0.546875 1.15625 0.84375q0.65625 0.296875 1.421875 0.296875q0.484375 0 1.0 -0.1875q0.53125 -0.1875 1.0 -0.5q0.484375 -0.328125 0.796875 -0.78125q0.3125 -0.453125 0.390625 -0.9375z" fill-rule="nonzero"/><path fill="#f4cccc" d="m133.2848 127.988174l0 -99.36703l0 0c0 -5.2708817 2.0938416 -10.32588 5.820923 -14.052957c3.727066 -3.7270756 8.782074 -5.8209257 14.052948 -5.8209257l99.367035 0l0 119.240906z" fill-rule="evenodd"/><path stroke="#000000" stroke-width="4.0" stroke-linejoin="round" stroke-linecap="butt" d="m133.2848 127.988174l0 -99.36703l0 0c0 -5.2708817 2.0938416 -10.32588 5.820923 -14.052957c3.727066 -3.7270756 8.782074 -5.8209257 14.052948 -5.8209257l99.367035 0l0 119.240906z" fill-rule="evenodd"/><path fill="#000000" fill-opacity="0.0" d="m133.2848 49.57105l119.240906 0l0 42.020374l-119.240906 0z" fill-rule="evenodd"/><path fill="#000000" d="m182.43494 76.49105l0 -13.250004l1.3125 0l0 13.250004l-1.3125 0zm9.220505 -8.59375q-1.265625 0.03125 -2.234375 0.703125q-0.953125 0.671875 -1.34375 1.84375l0 6.046875l-1.265625 0l0 -9.71875l1.1875 0l0 2.328125q0.5 -1.015625 1.328125 -1.65625q0.828125 -0.640625 1.765625 -0.703125q0.1875 -0.03125 0.328125 -0.03125q0.140625 0 0.234375 0.03125l0 1.15625zm1.7045898 8.59375l0 -9.71875l1.265625 0l0 9.71875l-1.265625 0zm0 -11.75l0 -1.8750038l1.265625 0l0 1.8750038l-1.265625 0zm7.2545624 11.9375q-1.203125 0 -2.234375 -0.390625q-1.015625 -0.390625 -1.765625 -1.203125l0.53125 -0.890625q0.8125 0.765625 1.640625 1.109375q0.828125 0.34375 1.765625 0.34375q1.140625 0 1.84375 -0.453125q0.71875 -0.453125 0.71875 -1.3125q0 -0.578125 -0.34375 -0.890625q-0.34375 -0.3125 -1.0 -0.5q-0.640625 -0.203125 -1.53125 -0.421875q-1.015625 -0.28125 -1.703125 -0.578125q-0.671875 -0.3125 -1.015625 -0.78125q-0.34375 -0.484375 -0.34375 -1.25q0 -0.953125 0.46875 -1.578125q0.484375 -0.625 1.3125 -0.953125q0.828125 -0.328125 1.859375 -0.328125q1.109375 0 1.96875 0.359375q0.859375 0.359375 1.40625 0.984375l-0.609375 0.859375q-0.53125 -0.59375 -1.25 -0.875q-0.71875 -0.296875 -1.59375 -0.296875q-0.59375 0 -1.140625 0.15625q-0.53125 0.15625 -0.890625 0.53125q-0.34375 0.359375 -0.34375 0.984375q0 0.53125 0.265625 0.828125q0.265625 0.28125 0.78125 0.484375q0.53125 0.1875 1.296875 0.40625q1.09375 0.296875 1.90625 0.609375q0.828125 0.3125 1.28125 0.796875q0.453125 0.484375 0.453125 1.359375q0 1.359375 -1.03125 2.125q-1.03125 0.765625 -2.703125 0.765625z" fill-rule="nonzero"/><path fill="#f4cccc" d="m6.870176 254.41954l0 -99.367035l0 0c0 -5.270874 2.0938497 -10.325882 5.820925 -14.052948c3.7270756 -3.7270813 8.782076 -5.820938 14.052958 -5.820938l99.36703 0l0 119.24092z" fill-rule="evenodd"/><path stroke="#000000" stroke-width="4.0" stroke-linejoin="round" stroke-linecap="butt" d="m6.870176 254.41954l0 -99.367035l0 0c0 -5.270874 2.0938497 -10.325882 5.820925 -14.052948c3.7270756 -3.7270813 8.782076 -5.820938 14.052958 -5.820938l99.36703 0l0 119.24092z" fill-rule="evenodd"/><path fill="#000000" fill-opacity="0.0" d="m6.870176 176.00241l119.240906 0l0 42.02037l-119.240906 0z" fill-rule="evenodd"/><path fill="#000000" d="m40.606853 189.67241l4.328125 5.765625l4.3125 -5.765625l1.484375 0l-5.078125 6.71875l4.921875 6.53125l-1.46875 0l-4.171875 -5.578125l-4.171875 5.578125l-1.484375 0l4.921875 -6.53125l-5.078125 -6.71875l1.484375 0zm10.747345 10.453125q0 -0.921875 0.515625 -1.578125q0.53125 -0.65625 1.453125 -1.015625q0.921875 -0.375 2.140625 -0.375q0.703125 0 1.46875 0.109375q0.765625 0.109375 1.375 0.34375l0 -0.828125q0 -1.234375 -0.734375 -1.953125q-0.734375 -0.734375 -2.015625 -0.734375q-0.78125 0 -1.546875 0.296875q-0.75 0.28125 -1.5625 0.84375l-0.484375 -0.890625q0.953125 -0.65625 1.859375 -0.984375q0.921875 -0.328125 1.859375 -0.328125q1.796875 0 2.84375 1.03125q1.046875 1.03125 1.046875 2.828125l0 4.5q0 0.265625 0.109375 0.390625q0.109375 0.109375 0.359375 0.140625l0 1.0q-0.21875 0.015625 -0.375 0.03125q-0.140625 0.03125 -0.203125 0q-0.46875 -0.015625 -0.71875 -0.296875q-0.234375 -0.28125 -0.25 -0.59375l-0.03125 -0.703125q-0.640625 0.828125 -1.6875 1.296875q-1.046875 0.453125 -2.125 0.453125q-0.9375 0 -1.703125 -0.390625q-0.75 -0.40625 -1.171875 -1.09375q-0.421875 -0.6875 -0.421875 -1.5zm6.515625 0.75q0.203125 -0.265625 0.3125 -0.5q0.125 -0.25 0.125 -0.4375l0 -1.421875q-0.640625 -0.234375 -1.328125 -0.359375q-0.671875 -0.140625 -1.359375 -0.140625q-1.375 0 -2.21875 0.546875q-0.828125 0.53125 -0.828125 1.46875q0 0.546875 0.28125 1.015625q0.28125 0.46875 0.8125 0.78125q0.546875 0.3125 1.28125 0.3125q0.90625 0 1.703125 -0.359375q0.796875 -0.359375 1.21875 -0.90625zm9.292667 -6.546875q-1.265625 0.03125 -2.234375 0.703125q-0.9531288 0.671875 -1.3437538 1.84375l0 6.046875l-1.265625 0l0 -9.71875l1.1875 0l0 2.328125q0.5000038 -1.015625 1.3281288 -1.65625q0.828125 -0.640625 1.765625 -0.703125q0.1875 -0.03125 0.328125 -0.03125q0.140625 0 0.234375 0.03125l0 1.15625zm6.54834 0q-1.265625 0.03125 -2.234375 0.703125q-0.953125 0.671875 -1.34375 1.84375l0 6.046875l-1.265625 0l0 -9.71875l1.1875 0l0 2.328125q0.5 -1.015625 1.328125 -1.65625q0.828125 -0.640625 1.765625 -0.703125q0.1875 -0.03125 0.328125 -0.03125q0.140625 0 0.234375 0.03125l0 1.15625zm0.8703766 5.796875q0 -0.921875 0.515625 -1.578125q0.53125 -0.65625 1.453125 -1.015625q0.921875 -0.375 2.140625 -0.375q0.703125 0 1.46875 0.109375q0.765625 0.109375 1.375 0.34375l0 -0.828125q0 -1.234375 -0.734375 -1.953125q-0.734375 -0.734375 -2.015625 -0.734375q-0.78125 0 -1.546875 0.296875q-0.75 0.28125 -1.5625 0.84375l-0.484375 -0.890625q0.953125 -0.65625 1.859375 -0.984375q0.921875 -0.328125 1.859375 -0.328125q1.796875 0 2.84375 1.03125q1.046875 1.03125 1.046875 2.828125l0 4.5q0 0.265625 0.109375 0.390625q0.109375 0.109375 0.359375 0.140625l0 1.0q-0.21875 0.015625 -0.375 0.03125q-0.140625 0.03125 -0.203125 0q-0.46875 -0.015625 -0.71875 -0.296875q-0.234375 -0.28125 -0.25 -0.59375l-0.03125 -0.703125q-0.640625 0.828125 -1.6875 1.296875q-1.046875 0.453125 -2.125 0.453125q-0.9375 0 -1.703125 -0.390625q-0.75 -0.40625 -1.171875 -1.09375q-0.421875 -0.6875 -0.421875 -1.5zm6.515625 0.75q0.203125 -0.265625 0.3125 -0.5q0.125 -0.25 0.125 -0.4375l0 -1.421875q-0.640625 -0.234375 -1.328125 -0.359375q-0.671875 -0.140625 -1.359375 -0.140625q-1.375 0 -2.21875 0.546875q-0.828125 0.53125 -0.828125 1.46875q0 0.546875 0.28125 1.015625q0.28125 0.46875 0.8125 0.78125q0.546875 0.3125 1.28125 0.3125q0.90625 0 1.703125 -0.359375q0.796875 -0.359375 1.21875 -0.90625zm4.6971283 5.03125q0.265625 0.015625 0.5 0.015625q0.25 0.015625 0.359375 -0.015625q0.234375 -0.03125 0.4375 -0.265625q0.203125 -0.21875 0.484375 -0.859375q0.28125 -0.625 0.78125 -1.859375l-4.234375 -9.71875l1.34375 0l3.5625 8.40625l3.28125 -8.40625l1.265625 0l-5.03125 12.53125q-0.125 0.359375 -0.390625 0.65625q-0.265625 0.3125 -0.65625 0.484375q-0.375 0.1875 -0.9375 0.203125q-0.15625 0.015625 -0.34375 0q-0.171875 0 -0.421875 -0.03125l0 -1.140625z" fill-rule="nonzero"/><path fill="#d9d2e9" d="m126.10991 387.97833l-99.36703 0l0 0c-5.2708817 0 -10.32588 -2.093872 -14.052957 -5.820923c-3.7270756 -3.7270813 -5.820925 -8.782074 -5.820925 -14.0529785l0 -99.367004l119.240906 0z" fill-rule="evenodd"/><path stroke="#000000" stroke-width="4.0" stroke-linejoin="round" stroke-linecap="butt" d="m126.10991 387.97833l-99.36703 0l0 0c-5.2708817 0 -10.32588 -2.093872 -14.052957 -5.820923c-3.7270756 -3.7270813 -5.820925 -8.782074 -5.820925 -14.0529785l0 -99.367004l119.240906 0z" fill-rule="evenodd"/><path fill="#000000" fill-opacity="0.0" d="m6.8701763 309.56003l119.240906 0l0 42.020355l-119.240906 0z" fill-rule="evenodd"/><path fill="#000000" d="m23.026907 336.48l0 -13.25l1.3125 0l0 13.25l-1.3125 0zm12.548632 0l-1.28125 0l0 -5.421875q0 -1.71875 -0.5 -2.515625q-0.5 -0.796875 -1.578125 -0.796875q-0.7500019 0 -1.4843769 0.375q-0.71875 0.359375 -1.28125 0.984375q-0.546875 0.625 -0.78125 1.421875l0 5.953125l-1.265625 0l0 -9.71875l1.15625 0l0 2.203125q0.390625 -0.71875 1.015625 -1.25q0.640625 -0.53125 1.4375 -0.828125q0.8125 -0.296875 1.6562519 -0.296875q0.8125 0 1.359375 0.296875q0.5625 0.296875 0.890625 0.859375q0.34375 0.546875 0.5 1.328125q0.15625 0.765625 0.15625 1.71875l0 5.6875zm7.267639 -0.46875q-0.15625 0.0625 -0.46875 0.21875q-0.3125 0.140625 -0.765625 0.25q-0.4375 0.109375 -0.96875 0.109375q-0.53125 0 -1.015625 -0.203125q-0.46875 -0.203125 -0.75 -0.625q-0.28125 -0.421875 -0.28125 -1.03125l0 -6.96875l-1.34375 0l0 -1.0l1.34375 0l0 -3.28125l1.265625 0l0 3.28125l2.234375 0l0 1.0l-2.234375 0l0 6.609375q0.03125 0.53125 0.375 0.796875q0.359375 0.25 0.796875 0.25q0.53125 0 0.953125 -0.171875q0.4375 -0.1875 0.53125 -0.265625l0.328125 1.03125zm5.613098 0.65625q-1.046875 0 -1.9375 -0.390625q-0.890625 -0.40625 -1.546875 -1.109375q-0.65625 -0.703125 -1.015625 -1.609375q-0.359375 -0.921875 -0.359375 -1.96875q0 -1.359375 0.625 -2.5q0.625 -1.140625 1.71875 -1.8125q1.09375 -0.6875 2.5 -0.6875q1.4375 0 2.5 0.703125q1.078125 0.6875 1.6875 1.8125q0.625 1.125 0.625 2.46875q0 0.15625 0 0.296875q0 0.125 -0.015625 0.203125l-8.328125 0q0.09375 1.046875 0.59375 1.859375q0.5 0.8125 1.28125 1.296875q0.796875 0.46875 1.734375 0.46875q0.953125 0 1.796875 -0.484375q0.84375 -0.484375 1.1875 -1.265625l1.09375 0.296875q-0.296875 0.6875 -0.921875 1.25q-0.609375 0.5625 -1.4375 0.875q-0.828125 0.296875 -1.78125 0.296875zm-3.578125 -5.5l7.1875 0q-0.078125 -1.0625 -0.578125 -1.859375q-0.484375 -0.8125 -1.28125 -1.265625q-0.796875 -0.46875 -1.75 -0.46875q-0.953125 0 -1.734375 0.46875q-0.78125 0.453125 -1.28125 1.265625q-0.484375 0.8125 -0.5625 1.859375zm15.185593 -3.28125q-1.265625 0.03125 -2.234375 0.703125q-0.953125 0.671875 -1.34375 1.84375l0 6.046875l-1.265625 0l0 -9.71875l1.1875 0l0 2.328125q0.5 -1.015625 1.328125 -1.65625q0.828125 -0.640625 1.765625 -0.703125q0.1875 -0.03125 0.328125 -0.03125q0.140625 0 0.234375 0.03125l0 1.15625zm0.8703766 5.796875q0 -0.921875 0.515625 -1.578125q0.53125 -0.65625 1.453125 -1.015625q0.921875 -0.375 2.140625 -0.375q0.703125 0 1.46875 0.109375q0.765625 0.109375 1.375 0.34375l0 -0.828125q0 -1.234375 -0.734375 -1.953125q-0.734375 -0.734375 -2.015625 -0.734375q-0.78125 0 -1.546875 0.296875q-0.75 0.28125 -1.5625 0.84375l-0.484375 -0.890625q0.953125 -0.65625 1.859375 -0.984375q0.921875 -0.328125 1.859375 -0.328125q1.796875 0 2.84375 1.03125q1.046875 1.03125 1.046875 2.828125l0 4.5q0 0.265625 0.109375 0.390625q0.109375 0.109375 0.359375 0.140625l0 1.0q-0.21875 0.015625 -0.375 0.03125q-0.140625 0.03125 -0.203125 0q-0.46875 -0.015625 -0.71875 -0.296875q-0.234375 -0.28125 -0.25 -0.59375l-0.03125 -0.703125q-0.640625 0.828125 -1.6875 1.296875q-1.046875 0.453125 -2.125 0.453125q-0.9375 0 -1.703125 -0.390625q-0.75 -0.40625 -1.171875 -1.09375q-0.421875 -0.6875 -0.421875 -1.5zm6.515625 0.75q0.203125 -0.265625 0.3125 -0.5q0.125 -0.25 0.125 -0.4375l0 -1.421875q-0.640625 -0.234375 -1.328125 -0.359375q-0.671875 -0.140625 -1.359375 -0.140625q-1.375 0 -2.21875 0.546875q-0.828125 0.53125 -0.828125 1.46875q0 0.546875 0.28125 1.015625q0.28125 0.46875 0.8125 0.78125q0.546875 0.3125 1.28125 0.3125q0.90625 0 1.703125 -0.359375q0.796875 -0.359375 1.21875 -0.90625zm8.652039 2.234375q-1.0625 0 -1.953125 -0.390625q-0.875 -0.40625 -1.546875 -1.109375q-0.65625 -0.71875 -1.015625 -1.625q-0.359375 -0.921875 -0.359375 -1.953125q0 -1.375 0.609375 -2.515625q0.609375 -1.140625 1.703125 -1.8125q1.109375 -0.671875 2.546875 -0.671875q1.359375 0 2.40625 0.625q1.046875 0.625 1.546875 1.6875l-1.21875 0.390625q-0.421875 -0.734375 -1.15625 -1.15625q-0.734375 -0.421875 -1.625 -0.421875q-0.96875 0 -1.78125 0.5q-0.796875 0.5 -1.28125 1.390625q-0.46875 0.875 -0.46875 1.984375q0 1.109375 0.484375 2.0q0.484375 0.890625 1.28125 1.421875q0.8125 0.53125 1.78125 0.53125q0.625 0 1.21875 -0.21875q0.59375 -0.21875 1.03125 -0.59375q0.4375 -0.390625 0.578125 -0.84375l1.25 0.375q-0.25 0.6875 -0.859375 1.25q-0.609375 0.546875 -1.421875 0.859375q-0.8125 0.296875 -1.75 0.296875zm10.695404 -0.65625q-0.15625 0.0625 -0.46875 0.21875q-0.3125 0.140625 -0.765625 0.25q-0.4375 0.109375 -0.96875 0.109375q-0.53125 0 -1.015625 -0.203125q-0.46875 -0.203125 -0.75 -0.625q-0.28125 -0.421875 -0.28125 -1.03125l0 -6.96875l-1.34375 0l0 -1.0l1.34375 0l0 -3.28125l1.265625 0l0 3.28125l2.234375 0l0 1.0l-2.234375 0l0 6.609375q0.03125 0.53125 0.375 0.796875q0.359375 0.25 0.796875 0.25q0.53125 0 0.953125 -0.171875q0.4375 -0.1875 0.53125 -0.265625l0.328125 1.03125zm1.5935974 0.46875l0 -9.71875l1.265625 0l0 9.71875l-1.265625 0zm0 -11.75l0 -1.875l1.265625 0l0 1.875l-1.265625 0zm6.9576874 11.75l-3.9375 -9.71875l1.3125 0l3.328125 8.453125l3.34375 -8.453125l1.25 0l-3.9375 9.71875l-1.359375 0zm10.904663 0.1875q-1.046875 0 -1.9375 -0.390625q-0.890625 -0.40625 -1.546875 -1.109375q-0.65625 -0.703125 -1.015625 -1.609375q-0.359375 -0.921875 -0.359375 -1.96875q0 -1.359375 0.625 -2.5q0.625 -1.140625 1.71875 -1.8125q1.09375 -0.6875 2.5 -0.6875q1.4375 0 2.5 0.703125q1.078125 0.6875 1.6875 1.8125q0.625 1.125 0.625 2.46875q0 0.15625 0 0.296875q0 0.125 -0.015625 0.203125l-8.328125 0q0.09375 1.046875 0.59375 1.859375q0.5 0.8125 1.28125 1.296875q0.796875 0.46875 1.734375 0.46875q0.953125 0 1.796875 -0.484375q0.84375 -0.484375 1.1875 -1.265625l1.09375 0.296875q-0.296875 0.6875 -0.921875 1.25q-0.609375 0.5625 -1.4375 0.875q-0.828125 0.296875 -1.78125 0.296875zm-3.578125 -5.5l7.1875 0q-0.078125 -1.0625 -0.578125 -1.859375q-0.484375 -0.8125 -1.28125 -1.265625q-0.796875 -0.46875 -1.75 -0.46875q-0.953125 0 -1.734375 0.46875q-0.78125 0.453125 -1.28125 1.265625q-0.484375 0.8125 -0.5625 1.859375z" fill-rule="nonzero"/><path fill="#d9d2e9" d="m252.52454 514.40497l-99.367035 0l0 0c-5.270874 0 -10.325882 -2.093811 -14.052948 -5.820923c-3.7270813 -3.7270508 -5.820923 -8.782074 -5.820923 -14.052948l0 -99.367035l119.240906 0z" fill-rule="evenodd"/><path stroke="#000000" stroke-width="4.0" stroke-linejoin="round" stroke-linecap="butt" d="m252.52454 514.40497l-99.367035 0l0 0c-5.270874 0 -10.325882 -2.093811 -14.052948 -5.820923c-3.7270813 -3.7270508 -5.820923 -8.782074 -5.820923 -14.052948l0 -99.367035l119.240906 0z" fill-rule="evenodd"/><path fill="#000000" fill-opacity="0.0" d="m133.2848 435.9585l119.240906 0l0 42.020386l-119.240906 0z" fill-rule="evenodd"/><path fill="#000000" d="m179.67085 459.45663q0 1.0 -0.515625 1.78125q-0.5 0.765625 -1.34375 1.203125q-0.84375 0.4375 -1.859375 0.4375l-6.25 0l0 -13.25l6.390625 0q0.921875 0 1.59375 0.5q0.6875 0.5 1.046875 1.28125q0.375 0.765625 0.375 1.59375q0 1.0 -0.5 1.84375q-0.5 0.828125 -1.40625 1.234375q1.140625 0.34375 1.796875 1.265625q0.671875 0.90625 0.671875 2.109375zm-1.3125 -0.21875q0 -0.671875 -0.296875 -1.234375q-0.296875 -0.578125 -0.8125 -0.921875q-0.515625 -0.359375 -1.15625 -0.359375l-5.078125 0l0 5.015625l4.9375 0q0.671875 0 1.203125 -0.34375q0.546875 -0.359375 0.875 -0.921875q0.328125 -0.578125 0.328125 -1.234375zm-7.34375 -8.46875l0 4.890625l4.546875 0q0.65625 0 1.15625 -0.34375q0.5 -0.34375 0.796875 -0.90625q0.3125 -0.5625 0.3125 -1.1875q0 -0.671875 -0.28125 -1.21875q-0.28125 -0.5625 -0.765625 -0.890625q-0.484375 -0.34375 -1.109375 -0.34375l-4.65625 0zm10.065689 9.3125q0 -0.921875 0.515625 -1.578125q0.53125 -0.65625 1.453125 -1.015625q0.921875 -0.375 2.140625 -0.375q0.703125 0 1.46875 0.109375q0.765625 0.109375 1.375 0.34375l0 -0.828125q0 -1.234375 -0.734375 -1.953125q-0.734375 -0.734375 -2.015625 -0.734375q-0.78125 0 -1.546875 0.296875q-0.75 0.28125 -1.5625 0.84375l-0.484375 -0.890625q0.953125 -0.65625 1.859375 -0.984375q0.921875 -0.328125 1.859375 -0.328125q1.796875 0 2.84375 1.03125q1.046875 1.03125 1.046875 2.828125l0 4.5q0 0.265625 0.109375 0.390625q0.109375 0.109375 0.359375 0.140625l0 1.0q-0.21875 0.015625 -0.375 0.03125q-0.140625 0.03125 -0.203125 0q-0.46875 -0.015625 -0.71875 -0.296875q-0.234375 -0.28125 -0.25 -0.59375l-0.03125 -0.703125q-0.640625 0.828125 -1.6875 1.296875q-1.046875 0.453125 -2.125 0.453125q-0.9375 0 -1.703125 -0.390625q-0.75 -0.40625 -1.171875 -1.09375q-0.421875 -0.6875 -0.421875 -1.5zm6.515625 0.75q0.203125 -0.265625 0.3125 -0.5q0.125 -0.25 0.125 -0.4375l0 -1.421875q-0.640625 -0.234375 -1.328125 -0.359375q-0.671875 -0.140625 -1.359375 -0.140625q-1.375 0 -2.21875 0.546875q-0.828125 0.53125 -0.828125 1.46875q0 0.546875 0.28125 1.015625q0.28125 0.46875 0.8125 0.78125q0.546875 0.3125 1.28125 0.3125q0.90625 0 1.703125 -0.359375q0.796875 -0.359375 1.21875 -0.90625zm9.030502 1.578125q-0.15625 0.0625 -0.46875 0.21875q-0.3125 0.140625 -0.765625 0.25q-0.4375 0.109375 -0.96875 0.109375q-0.53125 0 -1.015625 -0.203125q-0.46875 -0.203125 -0.75 -0.625q-0.28125 -0.421875 -0.28125 -1.03125l0 -6.96875l-1.34375 0l0 -1.0l1.34375 0l0 -3.28125l1.265625 0l0 3.28125l2.234375 0l0 1.0l-2.234375 0l0 6.609375q0.03125 0.53125 0.375 0.796875q0.359375 0.25 0.796875 0.25q0.53125 0 0.953125 -0.171875q0.4375 -0.1875 0.53125 -0.265625l0.328125 1.03125zm5.628723 0.65625q-1.0625 0 -1.953125 -0.390625q-0.875 -0.40625 -1.546875 -1.109375q-0.65625 -0.71875 -1.015625 -1.625q-0.359375 -0.921875 -0.359375 -1.953125q0 -1.375 0.609375 -2.515625q0.609375 -1.140625 1.703125 -1.8125q1.109375 -0.671875 2.546875 -0.671875q1.359375 0 2.40625 0.625q1.046875 0.625 1.546875 1.6875l-1.21875 0.390625q-0.421875 -0.734375 -1.15625 -1.15625q-0.734375 -0.421875 -1.625 -0.421875q-0.96875 0 -1.78125 0.5q-0.796875 0.5 -1.28125 1.390625q-0.46875 0.875 -0.46875 1.984375q0 1.109375 0.484375 2.0q0.484375 0.890625 1.28125 1.421875q0.8125 0.53125 1.78125 0.53125q0.625 0 1.21875 -0.21875q0.59375 -0.21875 1.03125 -0.59375q0.4375 -0.390625 0.578125 -0.84375l1.25 0.375q-0.25 0.6875 -0.859375 1.25q-0.609375 0.546875 -1.421875 0.859375q-0.8125 0.296875 -1.75 0.296875zm14.211029 -0.1875l-1.28125 0l0 -5.421875q0 -1.65625 -0.578125 -2.484375q-0.578125 -0.828125 -1.65625 -0.828125q-0.703125 0 -1.40625 0.375q-0.703125 0.359375 -1.234375 0.984375q-0.53125 0.625 -0.75 1.421875l0 5.953125l-1.265625 0l0 -13.625l1.265625 0l0 6.109375q0.578125 -1.078125 1.609375 -1.71875q1.03125 -0.65625 2.21875 -0.65625q0.828125 0 1.40625 0.296875q0.59375 0.296875 0.953125 0.875q0.375 0.5625 0.546875 1.328125q0.171875 0.75 0.171875 1.703125l0 5.6875z" fill-rule="nonzero"/></g></svg>
